<?xml version="1.0" encoding="utf-8"?>
<!-- Generator: Adobe Illustrator 21.1.0, SVG Export Plug-In . SVG Version: 6.00 Build 0)  -->
<svg version="1.1" id="Layer_1" xmlns="http://www.w3.org/2000/svg" xmlns:xlink="http://www.w3.org/1999/xlink" x="0px" y="0px"
	 viewBox="0 0 1969 5166" style="enable-background:new 0 0 1969 5166;" xml:space="preserve">
<style type="text/css">
	.st0{fill:#666666;}
	.st1{fill-rule:evenodd;clip-rule:evenodd;fill:#0071BC;}
	.st2{fill-rule:evenodd;clip-rule:evenodd;fill:#2588C7;}
	.st3{fill-rule:evenodd;clip-rule:evenodd;fill:#046499;}
	.st4{fill-rule:evenodd;clip-rule:evenodd;fill:#FFFFFF;}
	.st5{fill-rule:evenodd;clip-rule:evenodd;fill:#B0B0B0;}
	.st6{fill-rule:evenodd;clip-rule:evenodd;fill:#CACACA;}
	.st7{fill-rule:evenodd;clip-rule:evenodd;fill:#56617D;}
	.st8{fill-rule:evenodd;clip-rule:evenodd;fill:#E4E4E4;}
	.st9{fill-rule:evenodd;clip-rule:evenodd;fill:#494949;}
	.st10{fill-rule:evenodd;clip-rule:evenodd;fill:#597C2C;}
	.st11{fill:#FFFFFF;}
	.st12{fill-rule:evenodd;clip-rule:evenodd;fill:#DBBAAF;}
	.st13{opacity:0.43;fill-rule:evenodd;clip-rule:evenodd;fill:#FFFFFF;}
	.st14{fill-rule:evenodd;clip-rule:evenodd;fill:#7D9B61;}
	.st15{fill-rule:evenodd;clip-rule:evenodd;fill:none;stroke:#FFFFFF;stroke-width:3.8401;stroke-miterlimit:22.9256;}
	.st16{fill:#C3E4F8;}
	.st17{fill-rule:evenodd;clip-rule:evenodd;fill:#C3E4F8;}
	.st18{fill:#E29C40;}
	.st19{fill-rule:evenodd;clip-rule:evenodd;fill:#DDDDDD;}
	.st20{fill-rule:evenodd;clip-rule:evenodd;fill:#FD5272;}
	.st21{fill-rule:evenodd;clip-rule:evenodd;fill:#FDC0CB;}
	.st22{fill-rule:evenodd;clip-rule:evenodd;fill:#2EB999;}
	.st23{fill-rule:evenodd;clip-rule:evenodd;fill:#A8EEDE;}
	.st24{fill-rule:evenodd;clip-rule:evenodd;fill:#A6C56D;}
	.st25{fill-rule:evenodd;clip-rule:evenodd;fill:#ECFFCD;}
	.st26{fill-rule:evenodd;clip-rule:evenodd;fill:#16856D;}
	.st27{fill-rule:evenodd;clip-rule:evenodd;fill:#E5C289;}
	.st28{fill-rule:evenodd;clip-rule:evenodd;fill:#24560D;}
	.st29{fill-rule:evenodd;clip-rule:evenodd;fill:#FFF6E9;}
	.st30{fill-rule:evenodd;clip-rule:evenodd;fill:#87E4CF;}
	.st31{fill-rule:evenodd;clip-rule:evenodd;fill:#FCE29C;}
	.st32{fill-rule:evenodd;clip-rule:evenodd;fill:#FBCD57;}
	.st33{opacity:0.41;clip-path:url(#SVGID_2_);fill:#F0F5F7;}
	.st34{fill-rule:evenodd;clip-rule:evenodd;fill:none;}
</style>
<path class="st0" d="M1625.9,3290.5v-0.3c-0.3,0.4-0.7,0.8-1,1.1c-0.3,0.3-0.7,0.5-1.1,0.6c-0.4,0.1-0.8,0.2-1.3,0.2
	c-0.6,0-1.2-0.1-1.7-0.4c-0.5-0.3-1-0.7-1.4-1.2c-0.4-0.5-0.7-1.2-0.9-1.9c-0.2-0.7-0.3-1.5-0.3-2.3c0-1.8,0.4-3.2,1.2-4.1
	c0.8-1,1.8-1.5,3.1-1.5c0.7,0,1.4,0.1,1.9,0.4c0.5,0.3,1,0.7,1.5,1.3v-4.2c0-0.6,0.1-1,0.3-1.3c0.2-0.3,0.5-0.4,0.9-0.4
	c0.4,0,0.7,0.1,0.9,0.4c0.2,0.3,0.3,0.7,0.3,1.2v12.5c0,0.5-0.1,0.9-0.3,1.2c-0.2,0.3-0.5,0.4-0.9,0.4c-0.4,0-0.6-0.1-0.9-0.4
	C1626,3291.4,1625.9,3291,1625.9,3290.5L1625.9,3290.5z M1620.8,3286.3L1620.8,3286.3c0,0.8,0.1,1.4,0.3,2c0.2,0.5,0.5,0.9,0.9,1.2
	c0.4,0.3,0.8,0.4,1.2,0.4c0.5,0,0.9-0.1,1.2-0.4c0.4-0.3,0.7-0.7,0.9-1.2c0.2-0.5,0.3-1.2,0.3-2c0-0.8-0.1-1.4-0.3-1.9
	c-0.2-0.5-0.5-1-0.9-1.2c-0.4-0.3-0.8-0.4-1.3-0.4c-0.5,0-0.9,0.1-1.3,0.4c-0.4,0.3-0.7,0.7-0.9,1.3
	C1620.9,3285,1620.8,3285.6,1620.8,3286.3z"/>
<path class="st0" d="M1637.3,3287.1h-5.1c0,0.6,0.1,1.2,0.4,1.7c0.2,0.5,0.5,0.9,0.9,1.1c0.4,0.2,0.8,0.4,1.3,0.4
	c0.3,0,0.6,0,0.9-0.1c0.3-0.1,0.5-0.2,0.7-0.4c0.2-0.2,0.5-0.4,0.7-0.5c0.2-0.2,0.5-0.5,0.8-0.8c0.1-0.1,0.3-0.2,0.6-0.2
	c0.3,0,0.5,0.1,0.6,0.2c0.2,0.2,0.2,0.4,0.2,0.7c0,0.3-0.1,0.6-0.3,0.9c-0.2,0.3-0.5,0.7-0.8,1c-0.4,0.3-0.8,0.6-1.4,0.8
	c-0.6,0.2-1.2,0.3-1.9,0.3c-1.7,0-3-0.5-3.9-1.6c-0.9-1-1.4-2.4-1.4-4.2c0-0.8,0.1-1.6,0.3-2.3c0.2-0.7,0.6-1.3,1-1.8
	c0.4-0.5,1-0.9,1.6-1.2c0.6-0.3,1.3-0.4,2.1-0.4c1,0,1.9,0.2,2.6,0.7c0.7,0.5,1.3,1.1,1.6,1.8c0.4,0.7,0.5,1.5,0.5,2.3
	c0,0.7-0.2,1.2-0.6,1.4C1638.5,3287,1638,3287.1,1637.3,3287.1L1637.3,3287.1z M1632.2,3285.5L1632.2,3285.5h4.7
	c-0.1-1-0.3-1.7-0.7-2.2c-0.4-0.5-1-0.7-1.6-0.7c-0.6,0-1.2,0.2-1.6,0.7C1632.6,3283.8,1632.3,3284.5,1632.2,3285.5z"/>
<path class="st0" d="M1649.1,3288.4c0,0.8-0.2,1.5-0.5,2c-0.3,0.6-0.9,1-1.5,1.3c-0.7,0.3-1.5,0.4-2.5,0.4c-0.9,0-1.7-0.2-2.4-0.5
	c-0.7-0.3-1.2-0.7-1.5-1.2c-0.3-0.5-0.5-0.9-0.5-1.4c0-0.3,0.1-0.6,0.3-0.8c0.2-0.2,0.5-0.3,0.8-0.3c0.3,0,0.5,0.1,0.6,0.2
	c0.1,0.1,0.3,0.4,0.4,0.6c0.3,0.5,0.6,0.9,1,1.1c0.4,0.2,0.9,0.4,1.5,0.4c0.5,0,0.9-0.1,1.3-0.4c0.3-0.3,0.5-0.5,0.5-0.9
	c0-0.5-0.2-0.9-0.5-1.1c-0.3-0.2-0.9-0.4-1.7-0.7c-0.9-0.2-1.6-0.5-2.2-0.8c-0.6-0.3-1-0.6-1.3-1.1c-0.3-0.4-0.5-1-0.5-1.6
	c0-0.6,0.2-1.1,0.5-1.6c0.3-0.5,0.8-0.9,1.4-1.2c0.6-0.3,1.3-0.5,2.2-0.5c0.7,0,1.3,0.1,1.8,0.2c0.5,0.2,1,0.4,1.3,0.6
	c0.4,0.3,0.6,0.5,0.8,0.8c0.2,0.3,0.3,0.6,0.3,0.9c0,0.3-0.1,0.6-0.3,0.8c-0.2,0.2-0.5,0.3-0.9,0.3c-0.3,0-0.5-0.1-0.7-0.3
	c-0.2-0.2-0.4-0.4-0.6-0.7c-0.2-0.3-0.4-0.5-0.7-0.7c-0.3-0.2-0.6-0.2-1.1-0.2c-0.5,0-0.9,0.1-1.2,0.3c-0.3,0.2-0.5,0.5-0.5,0.8
	c0,0.3,0.1,0.5,0.3,0.7c0.2,0.2,0.5,0.3,0.9,0.5c0.4,0.1,0.9,0.3,1.6,0.5c0.8,0.2,1.5,0.5,2,0.8c0.5,0.3,0.9,0.6,1.2,1.1
	C1649,3287.4,1649.1,3287.9,1649.1,3288.4z"/>
<path class="st0" d="M1651.8,3279.3c-0.4,0-0.7-0.1-0.9-0.4c-0.3-0.2-0.4-0.6-0.4-1c0-0.4,0.1-0.7,0.4-1c0.3-0.3,0.6-0.4,0.9-0.4
	c0.3,0,0.6,0.1,0.9,0.4c0.3,0.2,0.4,0.6,0.4,1c0,0.4-0.1,0.8-0.4,1C1652.4,3279.2,1652.1,3279.3,1651.8,3279.3L1651.8,3279.3z
	 M1653,3282.2L1653,3282.2v8.2c0,0.6-0.1,1-0.4,1.3c-0.2,0.3-0.6,0.4-0.9,0.4c-0.4,0-0.7-0.1-0.9-0.4c-0.2-0.3-0.4-0.7-0.4-1.3v-8.1
	c0-0.6,0.1-1,0.4-1.3c0.2-0.3,0.5-0.4,0.9-0.4c0.4,0,0.7,0.1,0.9,0.4C1652.9,3281.3,1653,3281.7,1653,3282.2z"/>
<path class="st0" d="M1664.4,3282.7v8.2c0,0.9-0.1,1.8-0.3,2.4c-0.2,0.7-0.5,1.2-0.9,1.7c-0.4,0.4-0.9,0.8-1.6,1
	c-0.7,0.2-1.5,0.3-2.4,0.3c-0.9,0-1.7-0.1-2.4-0.4c-0.7-0.3-1.2-0.6-1.6-1.1c-0.4-0.4-0.6-0.9-0.6-1.3c0-0.3,0.1-0.6,0.3-0.8
	c0.2-0.2,0.5-0.3,0.8-0.3c0.4,0,0.7,0.2,1,0.5c0.1,0.2,0.3,0.4,0.4,0.6c0.1,0.2,0.3,0.4,0.5,0.5c0.2,0.1,0.4,0.2,0.7,0.3
	c0.3,0.1,0.5,0.1,0.9,0.1c0.7,0,1.2-0.1,1.6-0.3c0.4-0.2,0.6-0.5,0.8-0.9c0.1-0.4,0.2-0.8,0.3-1.2c0-0.4,0-1.1,0.1-2
	c-0.4,0.6-0.9,1.1-1.4,1.4c-0.5,0.3-1.1,0.5-1.9,0.5c-0.9,0-1.6-0.2-2.3-0.7c-0.6-0.5-1.1-1.2-1.5-2c-0.3-0.9-0.5-1.9-0.5-3
	c0-0.9,0.1-1.6,0.3-2.3c0.2-0.7,0.5-1.3,0.9-1.7c0.4-0.5,0.8-0.8,1.4-1.1c0.5-0.2,1.1-0.4,1.7-0.4c0.7,0,1.4,0.2,1.9,0.5
	c0.5,0.3,1,0.8,1.5,1.4v-0.4c0-0.5,0.1-0.9,0.3-1.1c0.2-0.3,0.5-0.4,0.9-0.4c0.5,0,0.8,0.2,1,0.5
	C1664.3,3281.5,1664.4,3282,1664.4,3282.7L1664.4,3282.7z M1656.9,3286.3L1656.9,3286.3c0,1.1,0.2,2,0.7,2.6
	c0.5,0.6,1.1,0.9,1.8,0.9c0.4,0,0.8-0.1,1.2-0.4c0.4-0.3,0.7-0.6,0.9-1.1c0.2-0.5,0.4-1.1,0.4-1.9c0-1.2-0.2-2.1-0.7-2.7
	c-0.5-0.6-1.1-1-1.8-1c-0.7,0-1.3,0.3-1.8,0.9C1657.1,3284.3,1656.9,3285.1,1656.9,3286.3z"/>
<path class="st0" d="M1668.5,3282.2v0.3c0.5-0.7,1-1.1,1.5-1.4c0.5-0.3,1.2-0.5,1.9-0.5c0.7,0,1.3,0.2,1.8,0.5
	c0.5,0.3,0.9,0.8,1.2,1.4c0.2,0.3,0.3,0.7,0.3,1.1c0.1,0.4,0.1,0.9,0.1,1.5v5.3c0,0.6-0.1,1-0.4,1.3c-0.2,0.3-0.5,0.4-0.9,0.4
	c-0.4,0-0.7-0.1-0.9-0.4c-0.2-0.3-0.4-0.7-0.4-1.3v-4.7c0-0.9-0.1-1.6-0.4-2.1c-0.2-0.5-0.7-0.7-1.4-0.7c-0.5,0-0.9,0.2-1.3,0.5
	c-0.4,0.3-0.7,0.7-0.8,1.2c-0.1,0.4-0.2,1.2-0.2,2.4v3.6c0,0.6-0.1,1-0.4,1.3c-0.2,0.3-0.6,0.4-0.9,0.4c-0.4,0-0.7-0.1-0.9-0.4
	c-0.2-0.3-0.4-0.7-0.4-1.3v-8.2c0-0.5,0.1-0.9,0.3-1.2c0.2-0.3,0.5-0.4,0.9-0.4c0.2,0,0.4,0.1,0.6,0.2c0.2,0.1,0.3,0.3,0.4,0.5
	C1668.5,3281.5,1668.5,3281.8,1668.5,3282.2z"/>
<path class="st0" d="M1684.3,3287.1h-5.1c0,0.6,0.1,1.2,0.4,1.7c0.2,0.5,0.5,0.9,0.9,1.1c0.4,0.2,0.8,0.4,1.3,0.4
	c0.3,0,0.6,0,0.9-0.1c0.3-0.1,0.5-0.2,0.7-0.4c0.2-0.2,0.5-0.4,0.7-0.5c0.2-0.2,0.5-0.5,0.8-0.8c0.1-0.1,0.3-0.2,0.6-0.2
	c0.3,0,0.5,0.1,0.6,0.2c0.2,0.2,0.2,0.4,0.2,0.7c0,0.3-0.1,0.6-0.3,0.9c-0.2,0.3-0.5,0.7-0.8,1c-0.4,0.3-0.8,0.6-1.4,0.8
	c-0.6,0.2-1.2,0.3-1.9,0.3c-1.7,0-3-0.5-3.9-1.6c-0.9-1-1.4-2.4-1.4-4.2c0-0.8,0.1-1.6,0.3-2.3c0.2-0.7,0.6-1.3,1-1.8
	c0.4-0.5,1-0.9,1.6-1.2c0.6-0.3,1.3-0.4,2.1-0.4c1,0,1.9,0.2,2.6,0.7c0.7,0.5,1.3,1.1,1.6,1.8c0.4,0.7,0.5,1.5,0.5,2.3
	c0,0.7-0.2,1.2-0.6,1.4C1685.5,3287,1685,3287.1,1684.3,3287.1L1684.3,3287.1z M1679.2,3285.5L1679.2,3285.5h4.7
	c-0.1-1-0.3-1.7-0.7-2.2c-0.4-0.5-1-0.7-1.6-0.7c-0.6,0-1.2,0.2-1.6,0.7C1679.6,3283.8,1679.3,3284.5,1679.2,3285.5z"/>
<path class="st0" d="M1694.9,3290.5v-0.3c-0.3,0.4-0.7,0.8-1,1.1c-0.3,0.3-0.7,0.5-1.1,0.6c-0.4,0.1-0.8,0.2-1.3,0.2
	c-0.6,0-1.2-0.1-1.7-0.4c-0.5-0.3-1-0.7-1.4-1.2c-0.4-0.5-0.7-1.2-0.9-1.9c-0.2-0.7-0.3-1.5-0.3-2.3c0-1.8,0.4-3.2,1.2-4.1
	c0.8-1,1.8-1.5,3.1-1.5c0.7,0,1.4,0.1,1.9,0.4c0.5,0.3,1,0.7,1.5,1.3v-4.2c0-0.6,0.1-1,0.3-1.3c0.2-0.3,0.5-0.4,0.9-0.4
	c0.4,0,0.7,0.1,0.9,0.4c0.2,0.3,0.3,0.7,0.3,1.2v12.5c0,0.5-0.1,0.9-0.3,1.2c-0.2,0.3-0.5,0.4-0.9,0.4c-0.4,0-0.6-0.1-0.9-0.4
	C1695,3291.4,1694.9,3291,1694.9,3290.5L1694.9,3290.5z M1689.8,3286.3L1689.8,3286.3c0,0.8,0.1,1.4,0.3,2c0.2,0.5,0.5,0.9,0.9,1.2
	c0.4,0.3,0.8,0.4,1.2,0.4c0.5,0,0.9-0.1,1.2-0.4c0.4-0.3,0.7-0.7,0.9-1.2c0.2-0.5,0.3-1.2,0.3-2c0-0.8-0.1-1.4-0.3-1.9
	c-0.2-0.5-0.5-1-0.9-1.2c-0.4-0.3-0.8-0.4-1.3-0.4c-0.5,0-0.9,0.1-1.3,0.4c-0.4,0.3-0.7,0.7-0.9,1.3
	C1689.9,3285,1689.8,3285.6,1689.8,3286.3z"/>
<path class="st0" d="M1705.5,3278v4.3c0.5-0.6,1-1,1.5-1.3c0.5-0.3,1.1-0.4,1.9-0.4c0.9,0,1.6,0.2,2.3,0.7c0.6,0.4,1.2,1.1,1.5,1.9
	c0.4,0.8,0.5,1.9,0.5,3c0,0.9-0.1,1.6-0.3,2.4c-0.2,0.7-0.5,1.3-0.9,1.9c-0.4,0.5-0.8,0.9-1.4,1.2c-0.5,0.3-1.1,0.4-1.8,0.4
	c-0.4,0-0.8-0.1-1.1-0.2c-0.4-0.1-0.7-0.2-0.9-0.4c-0.2-0.2-0.5-0.3-0.6-0.5c-0.2-0.2-0.4-0.5-0.7-0.8v0.3c0,0.5-0.1,0.9-0.4,1.2
	c-0.2,0.3-0.5,0.4-0.9,0.4c-0.4,0-0.7-0.1-0.9-0.4c-0.2-0.3-0.3-0.7-0.3-1.2v-12.4c0-0.6,0.1-1,0.3-1.3c0.2-0.3,0.5-0.4,0.9-0.4
	c0.4,0,0.7,0.1,0.9,0.4C1705.4,3277.1,1705.5,3277.5,1705.5,3278L1705.5,3278z M1705.6,3286.4L1705.6,3286.4c0,1.1,0.2,2,0.7,2.6
	c0.5,0.6,1.1,0.9,1.9,0.9c0.7,0,1.2-0.3,1.7-0.9c0.5-0.6,0.7-1.5,0.7-2.7c0-0.7-0.1-1.4-0.3-1.9c-0.2-0.5-0.5-1-0.8-1.3
	c-0.4-0.3-0.8-0.4-1.3-0.4c-0.5,0-0.9,0.1-1.3,0.4c-0.4,0.3-0.7,0.7-0.9,1.3C1705.7,3285,1705.6,3285.7,1705.6,3286.4z"/>
<path class="st0" d="M1716.5,3292.5l0.2-0.6l-3.2-8.8c-0.2-0.5-0.3-0.9-0.3-1.1c0-0.2,0.1-0.5,0.2-0.7c0.1-0.2,0.3-0.4,0.5-0.5
	c0.2-0.1,0.4-0.2,0.6-0.2c0.4,0,0.7,0.1,0.8,0.4c0.2,0.3,0.4,0.6,0.5,1.1l2.2,7l2.1-6.5c0.2-0.5,0.3-0.9,0.4-1.2
	c0.1-0.3,0.3-0.5,0.4-0.6c0.1-0.1,0.4-0.2,0.6-0.2c0.2,0,0.4,0.1,0.6,0.2c0.2,0.1,0.3,0.3,0.4,0.5c0.1,0.2,0.1,0.4,0.1,0.6
	c0,0.1-0.1,0.3-0.1,0.6c-0.1,0.2-0.1,0.5-0.2,0.7l-3.4,9.7c-0.3,0.9-0.6,1.5-0.9,2c-0.3,0.5-0.6,0.9-1.1,1.1
	c-0.5,0.3-1.1,0.4-1.9,0.4c-0.8,0-1.3-0.1-1.7-0.3c-0.4-0.2-0.6-0.5-0.6-1c0-0.3,0.1-0.6,0.3-0.8c0.2-0.2,0.4-0.3,0.8-0.3
	c0.1,0,0.3,0,0.4,0.1c0.2,0,0.3,0.1,0.4,0.1c0.3,0,0.5,0,0.7-0.1c0.2-0.1,0.3-0.3,0.5-0.5
	C1716.2,3293.3,1716.3,3292.9,1716.5,3292.5z"/>
<path class="st0" d="M1754.1,3280.8h0.6v-0.9c0-0.9,0.1-1.6,0.3-2.1c0.2-0.5,0.6-0.9,1-1.1c0.5-0.2,1.2-0.4,2-0.4
	c1.5,0,2.3,0.4,2.3,1.2c0,0.3-0.1,0.5-0.2,0.7c-0.2,0.2-0.3,0.3-0.6,0.3c-0.1,0-0.3,0-0.5-0.1c-0.2,0-0.5-0.1-0.6-0.1
	c-0.5,0-0.8,0.2-0.9,0.5c-0.1,0.3-0.2,0.7-0.2,1.3v0.7h0.6c1,0,1.5,0.3,1.5,1c0,0.5-0.1,0.8-0.4,0.9c-0.3,0.1-0.6,0.2-1.1,0.2h-0.6
	v7.5c0,0.6-0.1,1-0.4,1.3c-0.2,0.3-0.6,0.4-0.9,0.4c-0.4,0-0.7-0.1-0.9-0.4c-0.2-0.3-0.4-0.7-0.4-1.3v-7.5h-0.7
	c-0.4,0-0.7-0.1-0.9-0.3c-0.2-0.2-0.3-0.4-0.3-0.7C1752.8,3281.2,1753.2,3280.8,1754.1,3280.8z"/>
<path class="st0" d="M1762.6,3288v2.4c0,0.6-0.1,1-0.4,1.3c-0.2,0.3-0.6,0.4-0.9,0.4c-0.4,0-0.7-0.1-0.9-0.4
	c-0.2-0.3-0.4-0.7-0.4-1.3v-7.9c0-1.3,0.4-1.9,1.3-1.9c0.4,0,0.7,0.1,0.9,0.4c0.2,0.3,0.3,0.7,0.3,1.3c0.3-0.6,0.6-1,0.9-1.3
	c0.3-0.3,0.8-0.4,1.3-0.4c0.5,0,1.1,0.1,1.6,0.4c0.5,0.3,0.8,0.7,0.8,1.2c0,0.3-0.1,0.6-0.3,0.9c-0.2,0.2-0.5,0.3-0.7,0.3
	c-0.1,0-0.3-0.1-0.7-0.2c-0.4-0.1-0.7-0.2-1-0.2c-0.4,0-0.7,0.1-0.9,0.3c-0.2,0.2-0.4,0.5-0.6,1c-0.1,0.4-0.2,0.9-0.3,1.5
	C1762.6,3286.5,1762.6,3287.2,1762.6,3288z"/>
<path class="st0" d="M1774.5,3287.1h-5.1c0,0.6,0.1,1.2,0.4,1.7c0.2,0.5,0.5,0.9,0.9,1.1c0.4,0.2,0.8,0.4,1.3,0.4
	c0.3,0,0.6,0,0.8-0.1c0.3-0.1,0.5-0.2,0.7-0.4c0.2-0.2,0.5-0.3,0.7-0.5c0.2-0.2,0.5-0.5,0.8-0.8c0.1-0.1,0.3-0.2,0.6-0.2
	c0.3,0,0.5,0.1,0.6,0.2c0.2,0.2,0.2,0.4,0.2,0.7c0,0.3-0.1,0.6-0.3,0.9c-0.2,0.3-0.5,0.7-0.8,1c-0.4,0.3-0.8,0.6-1.4,0.8
	c-0.6,0.2-1.2,0.3-1.9,0.3c-1.7,0-3-0.5-3.9-1.6c-0.9-1-1.4-2.5-1.4-4.2c0-0.8,0.1-1.6,0.3-2.3c0.2-0.7,0.6-1.3,1-1.8
	c0.4-0.5,1-0.9,1.6-1.2c0.6-0.3,1.3-0.4,2.1-0.4c1,0,1.9,0.2,2.6,0.7c0.7,0.5,1.3,1.1,1.6,1.8c0.4,0.7,0.5,1.5,0.5,2.3
	c0,0.7-0.2,1.2-0.6,1.4C1775.7,3287,1775.2,3287.1,1774.5,3287.1L1774.5,3287.1z M1769.4,3285.4L1769.4,3285.4h4.7
	c-0.1-1-0.3-1.7-0.7-2.2c-0.4-0.5-1-0.7-1.6-0.7c-0.6,0-1.2,0.2-1.6,0.7C1769.7,3283.8,1769.5,3284.5,1769.4,3285.4z"/>
<path class="st0" d="M1785.3,3287.1h-5.1c0,0.6,0.1,1.2,0.4,1.7c0.2,0.5,0.5,0.9,0.9,1.1c0.4,0.2,0.8,0.4,1.3,0.4
	c0.3,0,0.6,0,0.8-0.1c0.3-0.1,0.5-0.2,0.8-0.4c0.2-0.2,0.5-0.3,0.7-0.5c0.2-0.2,0.5-0.5,0.8-0.8c0.1-0.1,0.3-0.2,0.6-0.2
	c0.3,0,0.5,0.1,0.7,0.2c0.2,0.2,0.2,0.4,0.2,0.7c0,0.3-0.1,0.6-0.3,0.9c-0.2,0.3-0.5,0.7-0.8,1c-0.4,0.3-0.8,0.6-1.4,0.8
	c-0.6,0.2-1.2,0.3-1.9,0.3c-1.7,0-3-0.5-3.9-1.6c-0.9-1-1.4-2.5-1.4-4.2c0-0.8,0.1-1.6,0.3-2.3c0.2-0.7,0.6-1.3,1-1.8
	c0.4-0.5,1-0.9,1.6-1.2c0.6-0.3,1.3-0.4,2.1-0.4c1,0,1.9,0.2,2.6,0.7c0.7,0.5,1.3,1.1,1.6,1.8c0.4,0.7,0.5,1.5,0.5,2.3
	c0,0.7-0.2,1.2-0.6,1.4C1786.5,3287,1785.9,3287.1,1785.3,3287.1L1785.3,3287.1z M1780.2,3285.4L1780.2,3285.4h4.7
	c-0.1-1-0.3-1.7-0.7-2.2c-0.4-0.5-1-0.7-1.6-0.7c-0.6,0-1.2,0.2-1.6,0.7C1780.5,3283.8,1780.3,3284.5,1780.2,3285.4z"/>
<path class="st0" d="M1790.9,3282.2v0.3c0.5-0.7,1-1.1,1.5-1.4c0.5-0.3,1.1-0.5,1.8-0.5c0.8,0,1.5,0.2,2.2,0.7
	c0.7,0.5,1.2,1.1,1.6,2c0.4,0.9,0.6,1.9,0.6,3.1c0,0.9-0.1,1.7-0.3,2.4c-0.2,0.7-0.5,1.3-0.9,1.8c-0.4,0.5-0.9,0.9-1.4,1.1
	c-0.5,0.3-1.1,0.4-1.7,0.4c-0.7,0-1.4-0.2-1.9-0.5c-0.5-0.3-1-0.8-1.4-1.4v4.3c0,1.2-0.4,1.9-1.2,1.9c-0.5,0-0.8-0.2-1-0.5
	c-0.2-0.3-0.2-0.8-0.2-1.4v-12.2c0-0.5,0.1-0.9,0.3-1.2c0.2-0.3,0.5-0.4,0.9-0.4c0.4,0,0.7,0.1,0.9,0.4
	C1790.8,3281.3,1790.9,3281.7,1790.9,3282.2L1790.9,3282.2z M1796,3286.3L1796,3286.3c0-0.7-0.1-1.4-0.3-1.9
	c-0.2-0.5-0.5-0.9-0.9-1.2c-0.4-0.3-0.8-0.4-1.2-0.4c-0.7,0-1.3,0.3-1.8,0.9c-0.5,0.6-0.7,1.5-0.7,2.7c0,1.1,0.2,2,0.7,2.6
	c0.5,0.6,1.1,0.9,1.8,0.9c0.4,0,0.8-0.1,1.2-0.4c0.4-0.3,0.7-0.7,0.9-1.2C1795.9,3287.7,1796,3287.1,1796,3286.3z"/>
<path class="st0" d="M1801.2,3279.3c-0.4,0-0.7-0.1-0.9-0.4c-0.3-0.2-0.4-0.6-0.4-1c0-0.4,0.1-0.7,0.4-1c0.3-0.3,0.6-0.4,0.9-0.4
	c0.3,0,0.6,0.1,0.9,0.3c0.3,0.2,0.4,0.6,0.4,1c0,0.4-0.1,0.8-0.4,1C1801.9,3279.2,1801.6,3279.3,1801.2,3279.3L1801.2,3279.3z
	 M1802.5,3282.2L1802.5,3282.2v8.2c0,0.6-0.1,1-0.4,1.3c-0.2,0.3-0.6,0.4-0.9,0.4c-0.4,0-0.7-0.1-0.9-0.4c-0.2-0.3-0.4-0.7-0.4-1.3
	v-8.1c0-0.6,0.1-1,0.4-1.3c0.2-0.3,0.5-0.4,0.9-0.4c0.4,0,0.7,0.1,0.9,0.4C1802.4,3281.3,1802.5,3281.7,1802.5,3282.2z"/>
<path class="st0" d="M1810.9,3290.8l-2.3-4.1l-1.4,1.5v2.3c0,0.5-0.1,1-0.4,1.3c-0.3,0.3-0.6,0.4-0.9,0.4c-0.4,0-0.7-0.1-0.9-0.4
	c-0.2-0.3-0.3-0.7-0.3-1.3v-12.1c0-0.6,0.1-1.1,0.3-1.4c0.2-0.3,0.5-0.5,1-0.5c0.4,0,0.7,0.1,0.9,0.4c0.2,0.3,0.4,0.7,0.4,1.3v6.9
	l2.9-3.3c0.4-0.4,0.6-0.7,0.8-0.9c0.2-0.2,0.4-0.2,0.7-0.2c0.3,0,0.6,0.1,0.8,0.3c0.2,0.2,0.3,0.5,0.3,0.8c0,0.4-0.4,1-1.1,1.7
	l-1.4,1.4l2.7,4.6c0.2,0.3,0.3,0.6,0.4,0.8c0.1,0.2,0.1,0.3,0.1,0.5c0,0.5-0.1,0.8-0.3,1.1c-0.2,0.3-0.5,0.4-0.9,0.4
	c-0.3,0-0.6-0.1-0.7-0.3C1811.4,3291.7,1811.2,3291.3,1810.9,3290.8z"/>
<path class="st0" d="M1816.5,3292.1c-0.4,0-0.7-0.1-1-0.4c-0.3-0.3-0.4-0.7-0.4-1.2c0-0.4,0.1-0.8,0.4-1.1c0.3-0.3,0.6-0.5,1-0.5
	c0.4,0,0.7,0.2,1,0.5c0.3,0.3,0.4,0.7,0.4,1.1c0,0.5-0.1,0.9-0.4,1.2C1817.2,3292,1816.9,3292.1,1816.5,3292.1z"/>
<path class="st0" d="M1829.4,3288.6c0,0.4-0.1,0.7-0.3,1.1c-0.2,0.4-0.5,0.8-0.9,1.1c-0.4,0.4-0.9,0.7-1.5,0.9
	c-0.6,0.2-1.3,0.3-2,0.3c-1.6,0-2.9-0.5-3.8-1.5c-0.9-1-1.3-2.4-1.3-4.1c0-1.2,0.2-2.2,0.6-3.1c0.4-0.9,1-1.6,1.8-2.1
	c0.8-0.5,1.7-0.7,2.8-0.7c0.7,0,1.3,0.1,1.9,0.3c0.6,0.2,1,0.5,1.4,0.8c0.4,0.3,0.7,0.7,0.9,1.1c0.2,0.4,0.3,0.7,0.3,1.1
	c0,0.3-0.1,0.6-0.3,0.9c-0.2,0.2-0.5,0.4-0.8,0.4c-0.2,0-0.4-0.1-0.5-0.2c-0.1-0.1-0.3-0.3-0.5-0.6c-0.3-0.5-0.6-0.9-1-1.2
	c-0.3-0.3-0.8-0.4-1.3-0.4c-0.8,0-1.4,0.3-1.9,1c-0.5,0.7-0.7,1.6-0.7,2.7c0,0.5,0.1,1,0.2,1.5c0.1,0.4,0.3,0.8,0.5,1.1
	c0.2,0.3,0.5,0.6,0.8,0.7c0.3,0.2,0.7,0.2,1.1,0.2c0.5,0,1-0.1,1.3-0.4c0.4-0.3,0.7-0.7,1-1.2c0.2-0.3,0.3-0.6,0.5-0.7
	c0.2-0.2,0.4-0.3,0.7-0.3c0.3,0,0.6,0.1,0.8,0.4C1829.3,3288,1829.4,3288.3,1829.4,3288.6z"/>
<path class="st0" d="M1840.6,3286.4c0,0.8-0.1,1.6-0.4,2.3c-0.2,0.7-0.6,1.3-1.1,1.8c-0.5,0.5-1,0.9-1.6,1.2
	c-0.6,0.3-1.3,0.4-2.1,0.4c-0.8,0-1.5-0.1-2.1-0.4c-0.6-0.3-1.2-0.7-1.6-1.2c-0.5-0.5-0.8-1.1-1.1-1.8c-0.2-0.7-0.4-1.5-0.4-2.3
	c0-0.9,0.1-1.6,0.4-2.4c0.2-0.7,0.6-1.3,1-1.8c0.5-0.5,1-0.9,1.6-1.2c0.6-0.3,1.3-0.4,2.1-0.4c0.8,0,1.5,0.1,2.1,0.4
	c0.6,0.3,1.2,0.7,1.6,1.2c0.5,0.5,0.8,1.1,1,1.8C1840.5,3284.7,1840.6,3285.5,1840.6,3286.4L1840.6,3286.4z M1838,3286.4
	L1838,3286.4c0-1.2-0.2-2.1-0.7-2.7c-0.5-0.7-1.1-1-1.9-1c-0.5,0-1,0.1-1.3,0.4c-0.4,0.3-0.7,0.7-0.9,1.3c-0.2,0.6-0.3,1.2-0.3,2
	c0,0.7,0.1,1.4,0.3,1.9c0.2,0.6,0.5,1,0.9,1.3c0.4,0.3,0.8,0.4,1.4,0.4c0.8,0,1.4-0.3,1.9-1C1837.8,3288.4,1838,3287.5,1838,3286.4z
	"/>
<path class="st0" d="M1850.5,3286.6v3.8c0,0.6-0.1,1-0.4,1.3c-0.2,0.3-0.6,0.4-1,0.4c-0.4,0-0.7-0.1-1-0.4c-0.2-0.3-0.4-0.7-0.4-1.3
	v-4.5c0-0.7,0-1.3-0.1-1.7c0-0.4-0.2-0.7-0.4-1c-0.2-0.3-0.5-0.4-0.9-0.4c-0.9,0-1.4,0.3-1.7,1c-0.3,0.6-0.4,1.5-0.4,2.7v3.8
	c0,0.6-0.1,1-0.4,1.3c-0.2,0.3-0.6,0.5-1,0.5c-0.4,0-0.7-0.2-1-0.5c-0.3-0.3-0.4-0.7-0.4-1.3v-8.1c0-0.5,0.1-0.9,0.3-1.2
	c0.2-0.3,0.5-0.4,0.9-0.4c0.4,0,0.7,0.1,0.9,0.4c0.2,0.3,0.4,0.6,0.4,1.1v0.3c0.5-0.6,0.9-1,1.4-1.3c0.5-0.3,1.1-0.4,1.7-0.4
	c0.7,0,1.2,0.1,1.7,0.4c0.5,0.3,0.9,0.7,1.2,1.3c0.4-0.6,0.9-1,1.4-1.3c0.5-0.3,1.1-0.4,1.7-0.4c0.7,0,1.3,0.2,1.8,0.5
	c0.5,0.3,0.9,0.7,1.1,1.3c0.2,0.5,0.3,1.3,0.3,2.4v5.5c0,0.6-0.1,1-0.4,1.3c-0.2,0.3-0.6,0.4-1,0.4c-0.4,0-0.7-0.2-1-0.5
	c-0.3-0.3-0.4-0.7-0.4-1.3v-4.8c0-0.6,0-1.1-0.1-1.5c0-0.4-0.2-0.7-0.4-0.9c-0.2-0.2-0.5-0.4-1-0.4c-0.3,0-0.7,0.1-1,0.3
	c-0.3,0.2-0.5,0.5-0.7,0.9C1850.6,3284.5,1850.5,3285.4,1850.5,3286.6z"/>
<path class="st0" d="M1729.8,3285.7C1729.8,3285.7,1729.8,3285.7,1729.8,3285.7C1729.8,3285.7,1729.8,3285.7,1729.8,3285.7z"/>
<path class="st0" d="M1729.9,3286.6L1729.9,3286.6c0-0.3-0.1-0.5-0.1-0.8C1729.8,3286.1,1729.9,3286.3,1729.9,3286.6z"/>
<path class="st0" d="M1730.8,3289.2C1730.8,3289.2,1730.8,3289.2,1730.8,3289.2C1730.8,3289.2,1730.8,3289.2,1730.8,3289.2z"/>
<path class="st0" d="M1730.7,3289c0,0,0-0.1-0.1-0.1C1730.7,3288.9,1730.7,3289,1730.7,3289z"/>
<path class="st0" d="M1730.2,3287.6c0.1,0.4,0.3,0.9,0.5,1.3C1730.5,3288.4,1730.3,3288,1730.2,3287.6L1730.2,3287.6z"/>
<path class="st0" d="M1739.8,3274.8c0.5,0,0.9,0,1.3,0.1l0.1-0.8c0,0-1.2-0.4-2.7-0.3l-0.1-0.5c0.5-0.1,0.8-0.6,0.8-1.1
	c0-0.6-0.5-1.2-1.1-1.2c-0.6,0-1.1,0.5-1.1,1.2c0,0.6,0.4,1,0.8,1.1l0.1,0.5c-1.6,0.2-2.9,0.9-2.9,0.9l0.2,0.8
	c1-0.4,1.8-0.6,2.6-0.7C1738.8,3274.9,1739.4,3274.8,1739.8,3274.8z"/>
<path class="st0" d="M1730.8,3279L1730.8,3279c0-0.1,0.1-0.1,0.1-0.2l-0.3-0.2l-0.5-0.4c0,0-0.8,0.8-1.4,2.2c0,0-0.1-0.1-0.1-0.1
	c-0.2-0.2-0.4-0.3-0.8-0.3h0c-0.2,0-0.3-0.1-0.4-0.2c0.1-0.1,0.1-0.3,0.1-0.5c0-0.4-0.3-0.7-0.7-0.7c-0.4,0-0.7,0.3-0.7,0.7
	c0,0.4,0.3,0.7,0.7,0.7c0.1,0,0.1,0,0.2,0c0.2,0.2,0.4,0.4,0.8,0.4c0.2,0,0.3,0.1,0.4,0.2c0.1,0.1,0.1,0.3,0.2,0.5c0,0,0,0,0,0
	c-0.4,1.3-0.3,2.9-0.3,2.9l1.1,0c0-0.6,0.1-1.6,0.4-2.4C1730.1,3280.1,1730.7,3279.1,1730.8,3279z"/>
<path class="st0" d="M1749,3275.8c-0.4,0-0.7,0.3-0.7,0.7c0,0.1,0,0.1,0,0.2c-0.2,0.2-0.3,0.5-0.3,0.9c0,0.2,0,0.4-0.2,0.5
	c-0.1,0.1-0.2,0.1-0.3,0.2c-0.8-1.2-1.8-1.9-1.8-1.9l-0.8,0.9c0.6,0.6,1.2,1.3,1.7,2.2c0.4,0.6,0.8,1.4,1.1,2.2l1-0.5
	c0,0-0.5-1.3-1.1-2.4c0.1,0,0.2-0.1,0.3-0.2c0.2-0.2,0.3-0.5,0.3-0.8c0-0.2,0.1-0.4,0.1-0.5c0.1,0.1,0.3,0.2,0.4,0.2
	c0.4,0,0.7-0.3,0.7-0.7C1749.7,3276.1,1749.4,3275.8,1749,3275.8z"/>
<path class="st0" d="M1746.4,3285.8c-1.4,0.8-3.7,1.7-6.8,2.2c-1.2,0.2-2.4,0.2-3.4,0.2c-1.4,0-2.6-0.1-3.6-0.2
	c-1.1-0.1-1.9-0.3-2.4-0.5c0.1,0.4,0.3,0.9,0.5,1.3c0,0,0,0,0,0c0,0,0,0.1,0.1,0.1c0,0,0,0.1,0.1,0.1c0,0,0,0,0,0
	c0.3,0.6,0.7,1.2,1.1,1.7c1.4,1.7,2.9,2,2.9,2l0,0l0,0c0,0,1.3,0.5,3.3,0.5c1.9,0,3.9-0.4,5.7-1.3c1.3-0.8,2.6-1.9,3.3-2.9
	c0.5-0.8,0.8-1.6,1-2.5c0.1-0.5,0.2-1.2,0.1-2C1747.9,3285,1747.2,3285.4,1746.4,3285.8z"/>
<path class="st0" d="M1731.2,3279.4c0,0.1-0.7,1-1.1,2.5c-0.4,1.1-0.3,2.7-0.3,2.7v0c0,0.4,0,0.7,0.1,1.1c0,0,0,0,0,0
	c0,0,0,0.1,0,0.1c0,0.3,0.1,0.5,0.1,0.8c0.7,0.2,4.9,1.3,9.5,0.5c2.9-0.4,5.1-1.4,6.5-2.1c1.1-0.6,1.8-1.1,2.1-1.4
	c-0.3-1.1-1-2.9-1.7-4c-2-3.1-4.2-3.9-5.3-4.1c-0.4-0.1-0.8-0.1-1.2-0.1c-0.4,0-1,0-1.7,0.1c-0.7,0.1-1.6,0.3-2.5,0.7
	c-1.3,0.5-2.6,1.3-3.5,2.2l0,0C1731.9,3278.6,1731.6,3278.9,1731.2,3279.4L1731.2,3279.4z M1743.5,3278.7L1743.5,3278.7
	c1,0,1.7,0.9,1.7,1.9c0,1.1-0.8,1.9-1.7,1.9c-1,0-1.7-0.9-1.7-1.9C1741.8,3279.5,1742.5,3278.7,1743.5,3278.7L1743.5,3278.7z
	 M1735.3,3278.6L1735.3,3278.6c1.6,0,2.8,1.4,2.8,3.1c0,1.7-1.3,3.1-2.8,3.1c-1.6,0-2.8-1.4-2.8-3.1
	C1732.4,3280,1733.7,3278.6,1735.3,3278.6z"/>
<rect x="1.4" y="0" class="st1" width="1967" height="5395.2"/>
<polygon class="st2" points="663,2092.5 660.7,2085.9 218.1,2278.9 220.4,2285.4 "/>
<path class="st3" d="M724.1,2069.6l2.1,7l28.9-10.7c7.6-2.8,15.6,1.1,17.9,8.7l113.5,384.5c2.2,7.6-2.1,16.1-9.7,18.9l-591.1,219.1
	c-7.6,2.8-15.6-1.1-17.9-8.7L154.2,2304c-2.2-7.6,2.1-16.1,9.7-18.9l28.9-10.7l-2.1-7l-42.7,15.8l-77-63.8
	c-17.3-14.3-17.9-24.8,0.8-31.8l704.2-261c16.9-6.3,24.4-0.3,20.7,13.3l-31.6,114.5L724.1,2069.6z"/>
<path class="st4" d="M109.5,2250.9l591.1-219.1c7.6-2.8,15.6,1.1,17.9,8.7L832,2425.1c2.2,7.6-2.1,16.1-9.7,18.9l-591.1,219.1
	c-7.6,2.8-15.6-1.1-17.9-8.7L99.8,2269.9C97.6,2262.3,102,2253.8,109.5,2250.9z"/>
<path class="st5" d="M136.4,2241l34.3-12.7l5.8,19.6c0.5,1.8-0.5,3.8-2.3,4.4l-27.8,10.3c-1.8,0.7-3.6-0.3-4.2-2L136.4,2241z"/>
<path class="st5" d="M639.5,2054.5l34.3-12.7l5.8,19.6c0.5,1.8-0.5,3.8-2.3,4.4l-27.8,10.3c-1.8,0.7-3.7-0.3-4.2-2L639.5,2054.5z"/>
<path class="st6" d="M17.4,2153.5l704.2-261c16.9-6.3,24.4-0.3,20.7,13.3l-31.6,114.5L93.7,2249l-77-63.7
	C-0.7,2170.9-1.2,2160.4,17.4,2153.5z"/>
<polygon class="st7" points="709,1928.5 687.1,2015.2 110.5,2228.9 46.3,2174.1 "/>
<path class="st4" d="M14.3,2157.5L728,1893c1.5-0.6,3.1,0.2,3.6,1.7l0,0c0.4,1.5-0.4,3.2-1.9,3.8L15.9,2163.1
	c-1.5,0.6-3.1-0.2-3.6-1.7l0,0C11.9,2159.8,12.8,2158.1,14.3,2157.5z"/>
<path class="st4" d="M136,2221.4l24.5-9.1c1.6-0.6,3.2,0.2,3.7,1.8l8.6,29.1c0.5,1.6-0.4,3.3-2,3.9l-24.5,9.1
	c-1.6,0.6-3.2-0.2-3.7-1.8l-8.6-29.1C133.5,2223.7,134.4,2222,136,2221.4z"/>
<path class="st4" d="M639.1,2034.9l24.5-9.1c1.6-0.6,3.2,0.2,3.7,1.8l8.6,29.1c0.5,1.6-0.4,3.3-2,3.9l-24.5,9.1
	c-1.6,0.6-3.2-0.2-3.7-1.8l-8.6-29.1C636.7,2037.2,637.6,2035.5,639.1,2034.9z"/>
<path class="st6" d="M670.4,2104l19.1-7.1c2.2-0.8,4.5,0.3,5.1,2.5l4.2,14.2c0.6,2.2-0.6,4.6-2.8,5.4l-19.1,7.1
	c-2.2,0.8-4.5-0.3-5.1-2.5l-4.2-14.2C667,2107.2,668.3,2104.8,670.4,2104z"/>
<path class="st6" d="M679.3,2130.8l17.3-6.4c2.6-1,5.5,0.4,6.2,3l5.7,19.3c0.8,2.7-0.7,5.6-3.4,6.6l-17.3,6.4c-2.7,1-5.5-0.4-6.2-3
	l-5.7-19.3C675.1,2134.8,676.7,2131.8,679.3,2130.8z"/>
<path class="st6" d="M689.3,2164.8l17.3-6.4c2.7-1,5.5,0.4,6.2,3l5.7,19.3c0.8,2.7-0.7,5.6-3.4,6.6l-17.3,6.4c-2.7,1-5.5-0.4-6.2-3
	l-5.7-19.3C685.2,2168.7,686.7,2165.7,689.3,2164.8z"/>
<path class="st6" d="M699.4,2198.7l17.3-6.4c2.6-1,5.5,0.4,6.2,3l5.7,19.3c0.8,2.7-0.7,5.6-3.4,6.6l-17.3,6.4c-2.7,1-5.5-0.4-6.2-3
	l-5.7-19.3C695.2,2202.7,696.7,2199.7,699.4,2198.7z"/>
<path class="st6" d="M709.4,2232.7l17.3-6.4c2.6-1,5.5,0.4,6.2,3l5.7,19.3c0.8,2.7-0.7,5.6-3.4,6.6l-17.3,6.4c-2.7,1-5.5-0.4-6.2-3
	l-5.7-19.3C705.2,2236.6,706.7,2233.6,709.4,2232.7z"/>
<path class="st6" d="M719.4,2266.6l17.3-6.4c2.7-1,5.5,0.4,6.2,3l5.7,19.3c0.8,2.7-0.7,5.6-3.4,6.6l-17.3,6.4c-2.7,1-5.5-0.4-6.2-3
	l-5.7-19.3C715.2,2270.6,716.7,2267.6,719.4,2266.6z"/>
<path class="st6" d="M636.7,2116.5l19.1-7.1c2.2-0.8,4.5,0.3,5.1,2.5l4.2,14.2c0.6,2.2-0.6,4.6-2.8,5.4l-19.1,7.1
	c-2.2,0.8-4.5-0.3-5.1-2.5l-4.2-14.2C633.3,2119.7,634.5,2117.3,636.7,2116.5z"/>
<path class="st6" d="M614.8,2154.7l47.8-17.7c2.8-1.1,5.8,0.4,6.7,3.3l5.5,18.6c0.8,2.8-0.8,6-3.6,7.1l-47.8,17.7
	c-2.8,1.1-5.8-0.4-6.7-3.3l-5.5-18.6C610.3,2159,612,2155.8,614.8,2154.7z"/>
<path class="st6" d="M646.8,2180.5l25.9-9.6c2.8-1.1,5.8,0.4,6.7,3.3l5.5,18.6c0.8,2.8-0.8,6-3.6,7.1l-25.9,9.6
	c-2.8,1.1-5.8-0.4-6.7-3.3l-5.5-18.6C642.3,2184.8,643.9,2181.6,646.8,2180.5z"/>
<path class="st6" d="M631,2224l51.6-19.1c2.8-1.1,5.8,0.4,6.7,3.3l5.5,18.6c0.8,2.8-0.8,6-3.6,7.1l-51.6,19.1
	c-2.8,1.1-5.8-0.4-6.7-3.3l-5.5-18.6C626.6,2228.3,628.2,2225.1,631,2224z"/>
<path class="st6" d="M675.7,2245.1l17.3-6.4c2.7-1,5.5,0.4,6.2,3l5.7,19.3c0.8,2.7-0.7,5.6-3.4,6.6l-17.3,6.4c-2.7,1-5.5-0.4-6.2-3
	l-5.7-19.3C671.5,2249.1,673,2246.1,675.7,2245.1z"/>
<path class="st6" d="M685.7,2279.1l17.3-6.4c2.7-1,5.5,0.4,6.2,3l5.7,19.3c0.8,2.7-0.7,5.6-3.4,6.6l-17.3,6.4c-2.7,1-5.5-0.4-6.2-3
	l-5.7-19.3C681.5,2283.1,683,2280.1,685.7,2279.1z"/>
<path class="st6" d="M605.6,2128l16.5-6.1c2.2-0.8,4.5,0.3,5.1,2.5l4.2,14.2c0.6,2.2-0.6,4.6-2.8,5.4l-16.5,6.1
	c-2.2,0.8-4.5-0.3-5.1-2.5l-4.2-14.2C602.1,2131.3,603.4,2128.8,605.6,2128z"/>
<path class="st6" d="M573.9,2139.8l16.5-6.1c2.2-0.8,4.5,0.3,5.1,2.5l4.2,14.2c0.6,2.2-0.6,4.6-2.8,5.4l-16.5,6.1
	c-2.2,0.8-4.5-0.3-5.1-2.5l-4.2-14.2C570.5,2143,571.7,2140.6,573.9,2139.8z"/>
<path class="st6" d="M542.3,2151.5l16.5-6.1c2.2-0.8,4.5,0.3,5.1,2.5l4.2,14.2c0.6,2.2-0.6,4.6-2.8,5.4l-16.5,6.1
	c-2.2,0.8-4.5-0.3-5.1-2.5l-4.2-14.2C538.8,2154.7,540.1,2152.3,542.3,2151.5z"/>
<path class="st6" d="M510.6,2163.2l16.5-6.1c2.2-0.8,4.5,0.3,5.1,2.5l4.2,14.2c0.6,2.2-0.6,4.6-2.8,5.4l-16.5,6.1
	c-2.2,0.8-4.5-0.3-5.1-2.5l-4.2-14.2C507.2,2166.5,508.4,2164,510.6,2163.2z"/>
<path class="st6" d="M478.9,2175l16.5-6.1c2.2-0.8,4.5,0.3,5.1,2.5l4.2,14.2c0.6,2.2-0.6,4.6-2.8,5.4l-16.5,6.1
	c-2.2,0.8-4.5-0.3-5.1-2.5l-4.2-14.2C475.5,2178.2,476.8,2175.8,478.9,2175z"/>
<path class="st6" d="M447.3,2186.7l16.5-6.1c2.2-0.8,4.5,0.3,5.1,2.5l4.2,14.2c0.6,2.2-0.6,4.6-2.8,5.4l-16.5,6.1
	c-2.2,0.8-4.5-0.3-5.1-2.5l-4.2-14.2C443.9,2189.9,445.1,2187.5,447.3,2186.7z"/>
<path class="st6" d="M415.6,2198.4l16.5-6.1c2.2-0.8,4.5,0.3,5.1,2.5l4.2,14.2c0.6,2.2-0.6,4.6-2.8,5.4l-16.5,6.1
	c-2.2,0.8-4.5-0.3-5.1-2.5l-4.2-14.2C412.2,2201.7,413.5,2199.2,415.6,2198.4z"/>
<path class="st6" d="M384,2210.2l16.5-6.1c2.2-0.8,4.5,0.3,5.1,2.5l4.2,14.2c0.6,2.2-0.6,4.6-2.8,5.4l-16.5,6.1
	c-2.2,0.8-4.5-0.3-5.1-2.5l-4.2-14.2C380.5,2213.4,381.8,2211,384,2210.2z"/>
<path class="st6" d="M352.3,2221.9l16.5-6.1c2.2-0.8,4.5,0.3,5.1,2.5l4.2,14.2c0.6,2.2-0.6,4.6-2.8,5.4l-16.5,6.1
	c-2.2,0.8-4.5-0.3-5.1-2.5l-4.2-14.2C348.9,2225.1,350.1,2222.7,352.3,2221.9z"/>
<path class="st6" d="M320.6,2233.6l16.5-6.1c2.2-0.8,4.5,0.3,5.1,2.5l4.2,14.2c0.6,2.2-0.6,4.6-2.8,5.4l-16.5,6.1
	c-2.2,0.8-4.5-0.3-5.1-2.5l-4.2-14.2C317.2,2236.9,318.5,2234.4,320.6,2233.6z"/>
<path class="st6" d="M289,2245.4l16.5-6.1c2.2-0.8,4.5,0.3,5.1,2.5l4.2,14.2c0.6,2.2-0.6,4.6-2.8,5.4l-16.5,6.1
	c-2.2,0.8-4.5-0.3-5.1-2.5l-4.2-14.2C285.6,2248.6,286.8,2246.2,289,2245.4z"/>
<path class="st6" d="M257.3,2257.1l16.5-6.1c2.2-0.8,4.5,0.3,5.1,2.5l4.2,14.2c0.6,2.2-0.6,4.6-2.8,5.4l-16.5,6.1
	c-2.2,0.8-4.5-0.3-5.1-2.5l-4.2-14.2C253.9,2260.3,255.2,2257.9,257.3,2257.1z"/>
<path class="st6" d="M225.7,2268.8l16.5-6.1c2.2-0.8,4.5,0.3,5.1,2.5l4.2,14.2c0.6,2.2-0.6,4.6-2.8,5.4l-16.5,6.1
	c-2.2,0.8-4.5-0.3-5.1-2.5l-4.2-14.2C222.3,2272.1,223.5,2269.6,225.7,2268.8z"/>
<path class="st6" d="M194,2280.6l16.5-6.1c2.2-0.8,4.5,0.3,5.1,2.5l4.2,14.2c0.6,2.2-0.6,4.6-2.8,5.4l-16.5,6.1
	c-2.2,0.8-4.5-0.3-5.1-2.5l-4.2-14.2C190.6,2283.8,191.9,2281.4,194,2280.6z"/>
<path class="st6" d="M158.5,2293.8l19.1-7.1c2.2-0.8,4.5,0.3,5.1,2.5l4.2,14.2c0.6,2.2-0.6,4.6-2.8,5.4l-19.1,7.1
	c-2.2,0.8-4.5-0.3-5.1-2.5l-4.2-14.2C155,2297,156.3,2294.6,158.5,2293.8z"/>
<path class="st6" d="M580.6,2167.4l17-6.3c2.6-1,5.4,0.4,6.1,3l5.7,19.5c0.8,2.6-0.7,5.5-3.3,6.5l-17,6.3c-2.6,1-5.4-0.4-6.1-3
	l-5.7-19.5C576.5,2171.3,578,2168.4,580.6,2167.4z"/>
<path class="st6" d="M546.3,2180.1l17-6.3c2.6-1,5.4,0.4,6.1,3l5.7,19.5c0.8,2.6-0.7,5.5-3.3,6.5l-17,6.3c-2.6,1-5.4-0.4-6.1-3
	l-5.7-19.5C542.2,2184,543.7,2181.1,546.3,2180.1z"/>
<path class="st6" d="M511.9,2192.8l17-6.3c2.6-1,5.4,0.4,6.1,3l5.7,19.5c0.8,2.6-0.7,5.5-3.3,6.5l-17,6.3c-2.6,1-5.4-0.4-6.1-3
	l-5.7-19.5C507.8,2196.7,509.3,2193.8,511.9,2192.8z"/>
<path class="st6" d="M477.6,2205.6l17-6.3c2.6-1,5.4,0.4,6.1,3l5.7,19.5c0.8,2.6-0.7,5.5-3.3,6.5l-17,6.3c-2.6,1-5.4-0.4-6.1-3
	l-5.7-19.5C473.5,2209.5,475,2206.5,477.6,2205.6z"/>
<path class="st6" d="M443.2,2218.3l17-6.3c2.6-1,5.4,0.4,6.1,3l5.7,19.5c0.8,2.6-0.7,5.5-3.3,6.5l-17,6.3c-2.6,1-5.4-0.4-6.1-3
	l-5.7-19.5C439.1,2222.2,440.6,2219.3,443.2,2218.3z"/>
<path class="st6" d="M408.9,2231l17-6.3c2.6-1,5.4,0.4,6.1,3l5.7,19.5c0.8,2.6-0.7,5.5-3.3,6.5l-17,6.3c-2.6,1-5.4-0.4-6.1-3
	l-5.7-19.5C404.8,2234.9,406.3,2232,408.9,2231z"/>
<path class="st6" d="M374.6,2243.8l17-6.3c2.6-1,5.4,0.4,6.1,3l5.7,19.5c0.8,2.6-0.7,5.5-3.3,6.5l-17,6.3c-2.6,1-5.4-0.4-6.1-3
	l-5.7-19.5C370.5,2247.7,372,2244.7,374.6,2243.8z"/>
<path class="st6" d="M340.2,2256.5l17-6.3c2.6-1,5.4,0.4,6.1,3l5.7,19.5c0.8,2.6-0.7,5.5-3.3,6.5l-17,6.3c-2.6,1-5.4-0.4-6.1-3
	l-5.7-19.5C336.1,2260.4,337.6,2257.5,340.2,2256.5z"/>
<path class="st6" d="M305.9,2269.2l17-6.3c2.6-1,5.4,0.4,6.1,3l5.7,19.5c0.8,2.6-0.7,5.5-3.3,6.5l-17,6.3c-2.6,1-5.4-0.4-6.1-3
	l-5.7-19.5C301.8,2273.1,303.3,2270.2,305.9,2269.2z"/>
<path class="st6" d="M271.5,2282l17-6.3c2.6-1,5.4,0.4,6.1,3l5.7,19.5c0.8,2.6-0.7,5.5-3.3,6.5l-17,6.3c-2.6,1-5.4-0.4-6.1-3
	l-5.7-19.5C267.4,2285.9,268.9,2282.9,271.5,2282z"/>
<path class="st6" d="M237.2,2294.7l17-6.3c2.6-1,5.4,0.4,6.1,3l5.7,19.5c0.8,2.6-0.7,5.5-3.3,6.5l-17,6.3c-2.6,1-5.4-0.4-6.1-3
	l-5.7-19.5C233.1,2298.6,234.6,2295.7,237.2,2294.7z"/>
<path class="st6" d="M202.8,2307.4l17-6.3c2.6-1,5.4,0.4,6.1,3l5.7,19.5c0.8,2.6-0.7,5.5-3.3,6.5l-17,6.3c-2.6,1-5.4-0.4-6.1-3
	l-5.7-19.5C198.7,2311.3,200.2,2308.4,202.8,2307.4z"/>
<path class="st6" d="M167.3,2320.6l17.3-6.4c2.7-1,5.5,0.4,6.2,3l5.7,19.3c0.8,2.7-0.7,5.6-3.4,6.6l-17.3,6.4c-2.7,1-5.5-0.4-6.2-3
	l-5.7-19.3C163.2,2324.5,164.7,2321.6,167.3,2320.6z"/>
<path class="st6" d="M177.7,2354.4l35.7-13.2c2.8-1,5.8,0.4,6.7,3.3l5.5,18.6c0.8,2.8-0.8,6-3.6,7.1l-35.7,13.2
	c-2.8,1.1-5.8-0.4-6.7-3.3l-5.5-18.6C173.2,2358.6,174.9,2355.4,177.7,2354.4z"/>
<path class="st6" d="M187.7,2388.3l42.4-15.7c2.8-1.1,5.8,0.4,6.7,3.3l5.5,18.6c0.8,2.8-0.8,6-3.6,7.1l-42.4,15.7
	c-2.8,1.1-5.8-0.4-6.7-3.3l-5.5-18.6C183.3,2392.6,184.9,2389.4,187.7,2388.3z"/>
<path class="st6" d="M197.7,2422.3l60.8-22.5c2.8-1.1,5.8,0.4,6.7,3.3l5.5,18.6c0.8,2.8-0.8,6-3.6,7.1l-60.8,22.5
	c-2.8,1.1-5.8-0.4-6.7-3.3l-5.5-18.6C193.3,2426.5,194.9,2423.3,197.7,2422.3z"/>
<path class="st6" d="M208.4,2455.7l25.6-8.5c2.9-1,5.8,0.6,6.6,3.5l4.8,18.8c0.7,2.9-1,6-3.9,6.9l-25.6,8.5c-2.9,1-5.8-0.6-6.6-3.5
	l-4.8-18.8C203.8,2459.8,205.5,2456.7,208.4,2455.7z"/>
<path class="st6" d="M227.9,2335.8l18.2-6.8c2.8-1,5.7,0.4,6.6,3.2l5.5,18.8c0.8,2.8-0.8,5.9-3.6,7l-18.2,6.8
	c-2.8,1-5.7-0.4-6.6-3.2l-5.5-18.8C223.5,2340,225.1,2336.8,227.9,2335.8z"/>
<path class="st6" d="M262.9,2322.8l18.2-6.8c2.8-1,5.7,0.4,6.6,3.2l5.5,18.8c0.8,2.8-0.8,5.9-3.6,7l-18.2,6.8
	c-2.8,1-5.7-0.4-6.6-3.2l-5.5-18.8C258.5,2327,260.1,2323.9,262.9,2322.8z"/>
<path class="st6" d="M297.9,2309.9l18.2-6.8c2.8-1,5.7,0.4,6.6,3.2l5.5,18.8c0.8,2.8-0.8,5.9-3.6,7l-18.2,6.8
	c-2.8,1-5.7-0.4-6.6-3.2l-5.5-18.8C293.5,2314,295.1,2310.9,297.9,2309.9z"/>
<path class="st6" d="M332.9,2296.9l18.2-6.8c2.8-1,5.7,0.4,6.6,3.2l5.5,18.8c0.8,2.8-0.8,5.9-3.6,7l-18.2,6.8
	c-2.8,1-5.7-0.4-6.6-3.2l-5.5-18.8C328.5,2301,330.1,2297.9,332.9,2296.9z"/>
<path class="st6" d="M367.9,2283.9l18.2-6.8c2.8-1,5.7,0.4,6.6,3.2l5.5,18.8c0.8,2.8-0.8,5.9-3.6,7l-18.2,6.8
	c-2.8,1-5.7-0.4-6.6-3.2l-5.5-18.8C363.5,2288.1,365.1,2285,367.9,2283.9z"/>
<path class="st6" d="M402.8,2270.9l18.2-6.8c2.8-1,5.7,0.4,6.6,3.2l5.5,18.8c0.8,2.8-0.8,5.9-3.6,7l-18.2,6.8
	c-2.8,1-5.7-0.4-6.6-3.2l-5.5-18.8C398.5,2275.1,400.1,2272,402.8,2270.9z"/>
<path class="st6" d="M437.8,2258l18.2-6.8c2.8-1,5.7,0.4,6.6,3.2l5.5,18.8c0.8,2.8-0.8,5.9-3.6,7l-18.2,6.8c-2.8,1-5.7-0.4-6.6-3.2
	l-5.5-18.8C433.4,2262.1,435,2259,437.8,2258z"/>
<path class="st6" d="M472.8,2245l18.2-6.8c2.8-1,5.7,0.4,6.6,3.2l5.5,18.8c0.8,2.8-0.8,5.9-3.6,7l-18.2,6.8c-2.8,1-5.7-0.4-6.6-3.2
	l-5.5-18.8C468.4,2249.2,470,2246,472.8,2245z"/>
<path class="st6" d="M507.8,2232l18.2-6.8c2.8-1,5.7,0.4,6.6,3.2l5.5,18.8c0.8,2.8-0.8,5.9-3.6,7l-18.2,6.8c-2.8,1-5.7-0.4-6.6-3.2
	l-5.5-18.8C503.4,2236.2,505,2233.1,507.8,2232z"/>
<path class="st6" d="M542.8,2219.1l18.2-6.8c2.8-1,5.7,0.4,6.6,3.2l5.5,18.8c0.8,2.8-0.8,5.9-3.6,7l-18.2,6.8
	c-2.8,1-5.7-0.4-6.6-3.2l-5.5-18.8C538.4,2223.2,540,2220.1,542.8,2219.1z"/>
<path class="st6" d="M577.8,2206.1l18.2-6.8c2.8-1,5.7,0.4,6.6,3.2l5.5,18.8c0.8,2.8-0.8,5.9-3.6,7l-18.2,6.8
	c-2.8,1-5.7-0.4-6.6-3.2l-5.5-18.8C573.4,2210.3,575,2207.1,577.8,2206.1z"/>
<path class="st6" d="M612.8,2193.1l18.2-6.8c2.8-1,5.7,0.4,6.6,3.2l5.5,18.8c0.8,2.8-0.8,5.9-3.6,7l-18.2,6.8
	c-2.8,1-5.7-0.4-6.6-3.2l-5.5-18.8C608.4,2197.3,610,2194.2,612.8,2193.1z"/>
<path class="st6" d="M247.6,2366.1l18.2-6.8c2.8-1,5.7,0.4,6.6,3.2l5.5,18.8c0.8,2.8-0.8,5.9-3.6,7l-18.2,6.8
	c-2.8,1-5.7-0.4-6.6-3.2l-5.5-18.8C243.3,2370.3,244.9,2367.2,247.6,2366.1z"/>
<path class="st6" d="M282.6,2353.2l18.2-6.8c2.8-1,5.7,0.4,6.6,3.2l5.5,18.8c0.8,2.8-0.8,5.9-3.6,7l-18.2,6.8
	c-2.8,1-5.7-0.4-6.6-3.2l-5.5-18.8C278.2,2357.3,279.8,2354.2,282.6,2353.2z"/>
<path class="st6" d="M317.6,2340.2l18.2-6.8c2.8-1,5.7,0.4,6.6,3.2l5.5,18.8c0.8,2.8-0.8,5.9-3.6,7l-18.2,6.8
	c-2.8,1-5.7-0.4-6.6-3.2l-5.5-18.8C313.2,2344.4,314.8,2341.2,317.6,2340.2z"/>
<path class="st6" d="M352.6,2327.2l18.2-6.8c2.8-1,5.7,0.4,6.6,3.2l5.5,18.8c0.8,2.8-0.8,5.9-3.6,7l-18.2,6.8
	c-2.8,1-5.7-0.4-6.6-3.2l-5.5-18.8C348.2,2331.4,349.8,2328.3,352.6,2327.2z"/>
<path class="st6" d="M387.6,2314.3l18.2-6.8c2.8-1,5.7,0.4,6.6,3.2l5.5,18.8c0.8,2.8-0.8,5.9-3.6,7l-18.2,6.8
	c-2.8,1-5.7-0.4-6.6-3.2l-5.5-18.8C383.2,2318.4,384.8,2315.3,387.6,2314.3z"/>
<path class="st6" d="M422.6,2301.3l18.2-6.8c2.8-1,5.7,0.4,6.6,3.2l5.5,18.8c0.8,2.8-0.8,5.9-3.6,7l-18.2,6.8
	c-2.8,1-5.7-0.4-6.6-3.2l-5.5-18.8C418.2,2305.4,419.8,2302.3,422.6,2301.3z"/>
<path class="st6" d="M457.6,2288.3l18.2-6.8c2.8-1,5.7,0.4,6.6,3.2l5.5,18.8c0.8,2.8-0.8,5.9-3.6,7l-18.2,6.8
	c-2.8,1-5.7-0.4-6.6-3.2l-5.5-18.8C453.2,2292.5,454.8,2289.4,457.6,2288.3z"/>
<path class="st6" d="M492.6,2275.3l18.2-6.8c2.8-1,5.7,0.4,6.6,3.2l5.5,18.8c0.8,2.8-0.8,5.9-3.6,7l-18.2,6.8
	c-2.8,1-5.7-0.4-6.6-3.2l-5.5-18.8C488.2,2279.5,489.8,2276.4,492.6,2275.3z"/>
<path class="st6" d="M527.6,2262.4l18.2-6.8c2.8-1,5.7,0.4,6.6,3.2l5.5,18.8c0.8,2.8-0.8,5.9-3.6,7l-18.2,6.8
	c-2.8,1-5.7-0.4-6.6-3.2l-5.5-18.8C523.2,2266.5,524.8,2263.4,527.6,2262.4z"/>
<path class="st6" d="M562.6,2249.4l18.2-6.8c2.8-1,5.7,0.4,6.6,3.2l5.5,18.8c0.8,2.8-0.8,5.9-3.6,7l-18.2,6.8
	c-2.8,1-5.7-0.4-6.6-3.2l-5.5-18.8C558.2,2253.6,559.8,2250.4,562.6,2249.4z"/>
<path class="st6" d="M597.6,2236.4l18.2-6.8c2.8-1,5.7,0.4,6.6,3.2l5.5,18.8c0.8,2.8-0.8,5.9-3.6,7l-18.2,6.8
	c-2.8,1-5.7-0.4-6.6-3.2l-5.5-18.8C593.2,2240.6,594.8,2237.5,597.6,2236.4z"/>
<path class="st6" d="M276,2393.3l18.2-6.8c2.8-1,5.7,0.4,6.6,3.2l5.5,18.8c0.8,2.8-0.8,5.9-3.6,7l-18.2,6.8c-2.8,1-5.7-0.4-6.6-3.2
	l-5.5-18.8C271.6,2397.5,273.2,2394.3,276,2393.3z"/>
<path class="st6" d="M311,2380.3l18.2-6.8c2.8-1,5.7,0.4,6.6,3.2l5.5,18.8c0.8,2.8-0.8,5.9-3.6,7l-18.2,6.8c-2.8,1-5.7-0.4-6.6-3.2
	l-5.5-18.8C306.6,2384.5,308.2,2381.4,311,2380.3z"/>
<path class="st6" d="M346,2367.4l18.2-6.8c2.8-1,5.7,0.4,6.6,3.2l5.5,18.8c0.8,2.8-0.8,5.9-3.6,7l-18.2,6.8c-2.8,1-5.7-0.4-6.6-3.2
	l-5.5-18.8C341.6,2371.5,343.2,2368.4,346,2367.4z"/>
<path class="st6" d="M381,2354.4l18.2-6.8c2.8-1,5.7,0.4,6.6,3.2l5.5,18.8c0.8,2.8-0.8,5.9-3.6,7l-18.2,6.8c-2.8,1-5.7-0.4-6.6-3.2
	l-5.5-18.8C376.6,2358.5,378.2,2355.4,381,2354.4z"/>
<path class="st6" d="M415.9,2341.4l18.2-6.8c2.8-1,5.7,0.4,6.6,3.2l5.5,18.8c0.8,2.8-0.8,5.9-3.6,7l-18.2,6.8
	c-2.8,1-5.7-0.4-6.6-3.2l-5.5-18.8C411.6,2345.6,413.2,2342.4,415.9,2341.4z"/>
<path class="st6" d="M450.9,2328.4l18.2-6.8c2.8-1,5.7,0.4,6.6,3.2l5.5,18.8c0.8,2.8-0.8,5.9-3.6,7l-18.2,6.8
	c-2.8,1-5.7-0.4-6.6-3.2l-5.5-18.8C446.5,2332.6,448.1,2329.5,450.9,2328.4z"/>
<path class="st6" d="M485.9,2315.5l18.2-6.8c2.8-1,5.7,0.4,6.6,3.2l5.5,18.8c0.8,2.8-0.8,5.9-3.6,7l-18.2,6.8
	c-2.8,1-5.7-0.4-6.6-3.2l-5.5-18.8C481.5,2319.6,483.1,2316.5,485.9,2315.5z"/>
<path class="st6" d="M520.9,2302.5l18.2-6.8c2.8-1,5.7,0.4,6.6,3.2l5.5,18.8c0.8,2.8-0.8,5.9-3.6,7l-18.2,6.8
	c-2.8,1-5.7-0.4-6.6-3.2l-5.5-18.8C516.5,2306.7,518.1,2303.5,520.9,2302.5z"/>
<path class="st6" d="M555.9,2289.5l18.2-6.8c2.8-1,5.7,0.4,6.6,3.2l5.5,18.8c0.8,2.8-0.8,5.9-3.6,7l-18.2,6.8
	c-2.8,1-5.7-0.4-6.6-3.2l-5.5-18.8C551.5,2293.7,553.1,2290.6,555.9,2289.5z"/>
<path class="st6" d="M590.9,2276.6l18.2-6.8c2.8-1,5.7,0.4,6.6,3.2l5.5,18.8c0.8,2.8-0.8,5.9-3.6,7l-18.2,6.8
	c-2.8,1-5.7-0.4-6.6-3.2l-5.5-18.8C586.5,2280.7,588.1,2277.6,590.9,2276.6z"/>
<path class="st6" d="M626,2263.6l33-12.2c2.8-1.1,5.8,0.4,6.7,3.3l5.5,18.6c0.8,2.8-0.8,6-3.6,7.1l-33,12.2
	c-2.8,1.1-5.8-0.4-6.7-3.3l-5.5-18.6C621.5,2267.8,623.1,2264.6,626,2263.6z"/>
<path class="st6" d="M250.4,2440.4l18.2-6.8c2.8-1,5.7,0.4,6.6,3.2l5.5,18.8c0.8,2.8-0.8,5.9-3.6,7l-18.2,6.8
	c-2.8,1-5.7-0.4-6.6-3.2l-5.5-18.8C246,2444.6,247.7,2441.5,250.4,2440.4z"/>
<path class="st6" d="M285.4,2427.5l18.2-6.8c2.8-1,5.7,0.4,6.6,3.2l5.5,18.8c0.8,2.8-0.8,5.9-3.6,7l-18.2,6.8
	c-2.8,1-5.7-0.4-6.6-3.2l-5.5-18.8C281,2431.6,282.6,2428.5,285.4,2427.5z"/>
<path class="st6" d="M320.4,2414.5l18.2-6.8c2.8-1,5.7,0.4,6.6,3.2l5.5,18.8c0.8,2.8-0.8,5.9-3.6,7l-18.2,6.8
	c-2.8,1-5.7-0.4-6.6-3.2l-5.5-18.8C316,2418.6,317.6,2415.5,320.4,2414.5z"/>
<path class="st6" d="M355.4,2401.5l18.2-6.8c2.8-1,5.7,0.4,6.6,3.2l5.5,18.8c0.8,2.8-0.8,5.9-3.6,7l-18.2,6.8
	c-2.8,1-5.7-0.4-6.6-3.2l-5.5-18.8C351,2405.7,352.6,2402.5,355.4,2401.5z"/>
<path class="st6" d="M390.4,2388.5l18.2-6.8c2.8-1,5.7,0.4,6.6,3.2l5.5,18.8c0.8,2.8-0.8,5.9-3.6,7l-18.2,6.8
	c-2.8,1-5.7-0.4-6.6-3.2l-5.5-18.8C386,2392.7,387.6,2389.6,390.4,2388.5z"/>
<path class="st6" d="M425.4,2375.6l18.2-6.8c2.8-1,5.7,0.4,6.6,3.2l5.5,18.8c0.8,2.8-0.8,5.9-3.6,7l-18.2,6.8
	c-2.8,1-5.7-0.4-6.6-3.2l-5.5-18.8C421,2379.7,422.6,2376.6,425.4,2375.6z"/>
<path class="st6" d="M460.4,2362.6l18.2-6.8c2.8-1,5.7,0.4,6.6,3.2l5.5,18.8c0.8,2.8-0.8,5.9-3.6,7l-18.2,6.8
	c-2.8,1-5.7-0.4-6.6-3.2l-5.5-18.8C456,2366.8,457.6,2363.6,460.4,2362.6z"/>
<path class="st6" d="M495.4,2349.6l18.2-6.8c2.8-1,5.7,0.4,6.6,3.2l5.5,18.8c0.8,2.8-0.8,5.9-3.6,7l-18.2,6.8
	c-2.8,1-5.7-0.4-6.6-3.2l-5.5-18.8C491,2353.8,492.6,2350.7,495.4,2349.6z"/>
<path class="st6" d="M530.4,2336.7l18.2-6.8c2.8-1,5.7,0.4,6.6,3.2l5.5,18.8c0.8,2.8-0.8,5.9-3.6,7l-18.2,6.8
	c-2.8,1-5.7-0.4-6.6-3.2l-5.5-18.8C526,2340.8,527.6,2337.7,530.4,2336.7z"/>
<path class="st6" d="M565.4,2323.7l18.2-6.8c2.8-1,5.7,0.4,6.6,3.2l5.5,18.8c0.8,2.8-0.8,5.9-3.6,7l-18.2,6.8
	c-2.8,1-5.7-0.4-6.6-3.2l-5.5-18.8C561,2327.9,562.6,2324.7,565.4,2323.7z"/>
<path class="st6" d="M600.4,2310.7l33-12.2c2.8-1.1,5.8,0.4,6.7,3.3l5.5,18.6c0.8,2.8-0.8,6-3.6,7.1l-33,12.2
	c-2.8,1.1-5.8-0.4-6.7-3.3l-5.5-18.6C596,2314.9,597.6,2311.7,600.4,2310.7z"/>
<path class="st6" d="M652,2291.6l17.3-6.4c2.7-1,5.5,0.4,6.2,3l5.7,19.3c0.8,2.7-0.7,5.6-3.4,6.6l-17.3,6.4c-2.7,1-5.5-0.4-6.2-3
	l-5.7-19.3C647.8,2295.6,649.3,2292.6,652,2291.6z"/>
<path class="st6" d="M394.2,2446.3l181.8-67.4c2.8-1,5.7,0.4,6.5,3.2l25.9,87.7c0.8,2.8-0.8,5.9-3.5,6.9l-181.8,67.4
	c-2.8,1-5.7-0.4-6.5-3.2l-25.9-87.7C389.8,2450.4,391.4,2447.3,394.2,2446.3z"/>
<path class="st6" d="M421,2552.1l90.4-33.5c0.6-0.2,1.2,0.1,1.4,0.7l5.4,18.2c0.2,0.6-0.2,1.2-0.7,1.4l-90.4,33.5
	c-0.6,0.2-1.2-0.1-1.4-0.7l-5.4-18.2C420.1,2553,420.4,2552.3,421,2552.1z"/>
<path class="st6" d="M520.4,2515.3l90.4-33.5c0.6-0.2,1.2,0.1,1.4,0.7l5.4,18.2c0.2,0.6-0.2,1.2-0.7,1.4l-90.4,33.5
	c-0.6,0.2-1.2-0.1-1.4-0.7l-5.4-18.2C519.5,2516.1,519.8,2515.5,520.4,2515.3z"/>
<polygon class="st7" points="46.3,2174.1 687.1,2015.2 709,1928.5 "/>
<path class="st4" d="M1705.4,2875.1c-45.9-34.6,6.1-182.1,79.8-126.6C1856.6,2802.3,1751.3,2909.7,1705.4,2875.1z"/>
<path class="st8" d="M1691.5,2854.2c-16.6-51.8,30.6-153.3,93.7-105.7c15,11.3,22.2,25.1,23.8,39.3c-3.8-5.4-8.8-10.4-15-15.1
	C1738.2,2730.7,1694.2,2798.8,1691.5,2854.2z"/>
<path class="st4" d="M1102.8,2518.3c54.4,12,121-130.8,33.6-150C1051.7,2349.6,1048.3,2506.3,1102.8,2518.3z"/>
<path class="st8" d="M1126,2514c46.7-22.9,84.8-130,9.9-146.4c-17.8-3.9-32.1,0-42.9,8.6c6.2-0.7,13-0.3,20.4,1.3
	C1179.6,2392,1162.3,2473.6,1126,2514z"/>
<polygon class="st8" points="987.9,2198.5 1000.7,2220.1 1044.5,2213 1022.6,2258.2 1052.1,2288 1074.4,2214.2 1030.7,2173.1 "/>
<path class="st4" d="M1052.1,2288c36.2-20.1,63-62.2,29.1-103.9c-31-38.2-69.9-18.7-93.4,14.4l2.8,13.6l40.5-15.2l-14.6,43.4
	l18.3,15.5l-6.3,24.3L1052.1,2288z"/>
<path class="st8" d="M1052.1,2288c36.2-20.1,63-62.2,29.1-103.9c-12.1-14.9-25.5-21-38.6-21c5.3,3.5,10.5,8.2,15.6,14.4
	c33.2,40.9,11.2,82.1-22.7,104.8L1052.1,2288z"/>
<polygon class="st8" points="1045.6,2303.9 1015.1,2319 1004.5,2276 987.6,2326 955.5,2274 942,2293.2 977.5,2348.3 1006.9,2349.7 
	"/>
<path class="st4" d="M992.1,2363c24,0.9,44.7-26.9,53.5-59l-21.5,13.2l-11.7-21.7l-22.9,3.9l-18.8-41.5l-17.8,42.6l-10.9-7.1
	C947,2328.6,966.4,2362,992.1,2363z"/>
<path class="st8" d="M1014.7,2355.2c13.9-10.3,25.1-29.8,30.9-51.2l-15.1,9.3C1027.5,2328.3,1022,2343,1014.7,2355.2z"/>
<path class="st9" d="M1906,2716.8c-201.7,53.2-407.4-70.4-459.5-276.1c-52.1-205.6,69.1-415.4,270.7-468.6
	c201.7-53.2,407.4,70.4,459.5,276.1C2228.9,2453.8,2107.7,2663.6,1906,2716.8z"/>
<path class="st10" d="M1898.3,2685.5c-184,48.5-371.7-64.3-419.2-251.8c-47.6-187.6,63-379,247-427.5
	c184-48.5,371.7,64.3,419.2,251.8C2192.8,2445.7,2082.2,2637,1898.3,2685.5z"/>
<path class="st11" d="M1486.3,2588c12.1-31.1,18.6-86,25.6-145.1c8.3-70,17.3-145.8,37.4-197.6c20.1-51.9,50.6-80.1,100.8-56.8
	c47.3,21.9,50.2,62.9,31.1,112.1c-19.8,50.9-63.9,110.4-105,166c-35.5,47.9-68.8,92.7-81.4,125.3L1486.3,2588L1486.3,2588z
	 M1521.5,2442.7c-4.6,38.9-9,76.1-15.1,106.4c16.7-27.2,39.5-58.1,63.4-90.2c40.6-54.7,84-113.3,103-162.2
	c16.4-42.2,13.8-77.4-27.1-96.3c-43.8-20.3-70.3,4.1-87.7,48.9C1538.6,2299.1,1529.7,2373.7,1521.5,2442.7z"/>
<path class="st11" d="M1486.8,2588.2c12.2-31.5,23-84.5,34.7-141.6c13.7-67.3,28.6-140.2,48.6-191.7c20.1-51.9,45.3-82.5,79.5-66.7
	c32.2,14.9,30,53.6,10.9,102.8c-19.6,50.5-57.5,112.7-93,170.8c-30.7,50.2-59.4,97.4-72.2,130.4L1486.8,2588.2L1486.8,2588.2z
	 M1530.9,2447.8c-6.6,32.3-12.9,63.2-19.4,90c13.9-25.2,31.1-53.3,48.9-82.5c35-57.4,72.5-118.9,91.7-168.2c16.4-42.2,18.9-75-7-87
	c-27.7-12.9-49,14-66.4,58.8C1559.2,2309,1544.5,2381.2,1530.9,2447.8z"/>
<path class="st11" d="M1508.7,2531.9c10.8-27.5,25-71.1,40.3-118c17.9-55,37.4-114.5,54.5-158.3c17.5-44.6,33.5-73.7,45.3-68.3
	c11.2,5.2,3.7,35.8-12.9,78.1c-16.9,43.1-43,99.5-67.4,152.1c-21.3,45.9-41.2,89-52.5,117.7L1508.7,2531.9L1508.7,2531.9z
	 M1556.7,2416.4c-2.8,8.7-5.6,17.2-8.4,25.6c4.3-9.3,8.8-18.9,13.2-28.6c24.3-52.4,50.3-108.6,67.1-151.3
	c14.2-36.3,22-61.9,16.3-64.6c-6.3-2.9-18.8,22.9-34,61.5C1593.9,2302.5,1574.5,2361.7,1556.7,2416.4z"/>
<path class="st12" d="M1502.3,2513.5l26.2,12.2c2.9,1.3,4.3,5,3,8.2l-57.1,147.1c-4.3,11-16.1,16.3-26.2,11.6l0,0
	c-10.1-4.7-14.9-17.6-10.6-28.6l57.1-147.1C1496,2513.6,1499.4,2512.2,1502.3,2513.5L1502.3,2513.5z M1460.1,2662.1
	c-5.1-2.4-10.9,0.2-13.1,5.8c-2.2,5.5,0.2,12,5.3,14.3c5.1,2.4,10.9-0.2,13.1-5.8C1467.5,2670.8,1465.2,2664.4,1460.1,2662.1z"/>
<path class="st10" d="M1882.6,2307c-89.1,11.1-180.4,86.2-189.2,213.3c-8.7,127.2-308.7-215-152.5-332.2
	C1697.2,2070.9,1772.8,2130.5,1882.6,2307z"/>
<path class="st13" d="M2012.6,2466c-6.6,2.4-10,9.9-7.6,16.6c2.4,6.7,9.7,10.2,16.3,7.7c6.6-2.4,10-9.9,7.6-16.6
	C2026.5,2467.1,2019.2,2463.6,2012.6,2466z"/>
<path class="st13" d="M2006.4,2519.7c-6.6,2.4-10,9.9-7.6,16.6c2.4,6.7,9.7,10.2,16.3,7.7c6.6-2.4,10-9.9,7.6-16.6
	C2020.3,2520.7,2013,2517.2,2006.4,2519.7z"/>
<path class="st13" d="M1918.7,2514.8c-6.6,2.4-10,9.9-7.6,16.6c2.4,6.7,9.7,10.2,16.3,7.7c6.6-2.4,10-9.9,7.6-16.6
	C1932.6,2515.8,1925.3,2512.3,1918.7,2514.8z"/>
<path class="st13" d="M1661.5,2128.6c-6.6,2.6-10,10.6-7.6,17.8c2.4,7.2,9.7,10.9,16.3,8.3c6.6-2.6,10-10.6,7.6-17.8
	C1675.4,2129.7,1668.1,2125.9,1661.5,2128.6z"/>
<path class="st13" d="M1719.8,1916c-6.6,2.6-10,10.6-7.6,17.8c2.4,7.2,9.7,10.9,16.3,8.3c6.6-2.6,10-10.6,7.6-17.8
	C1733.7,1917.1,1726.4,1913.4,1719.8,1916z"/>
<path class="st13" d="M1693.2,2071.3c-6.6,2.6-10,10.6-7.6,17.8c2.4,7.2,9.7,10.9,16.3,8.3c6.6-2.6,10-10.6,7.6-17.8
	C1707.1,2072.4,1699.8,2068.7,1693.2,2071.3z"/>
<path class="st13" d="M1739.3,2171.4c-6.6,2.4-10,9.9-7.6,16.6c2.4,6.7,9.7,10.2,16.3,7.7c6.6-2.4,10-9.9,7.6-16.6
	C1753.2,2172.4,1745.9,2168.9,1739.3,2171.4z"/>
<path class="st13" d="M1933.8,2099c-6.6,2.4-10,9.9-7.6,16.6c2.4,6.7,9.7,10.2,16.3,7.7c6.6-2.4,10-9.9,7.6-16.6
	C1947.7,2100,1940.4,2096.6,1933.8,2099z"/>
<path class="st13" d="M1657.3,2448.8c-6.6,2.6-10,10.6-7.6,17.8c2.4,7.2,9.7,10.9,16.3,8.3c6.6-2.6,10-10.6,7.6-17.8
	C1671.2,2449.9,1663.9,2446.1,1657.3,2448.8z"/>
<path class="st13" d="M1604.8,2060.4c-6.6,2.6-10,10.6-7.6,17.8c2.4,7.2,9.7,10.9,16.3,8.3c6.6-2.6,10-10.6,7.6-17.8
	C1618.7,2061.5,1611.3,2057.8,1604.8,2060.4z"/>
<path class="st13" d="M1586.2,1984c-6.6,2.6-10,10.6-7.6,17.8c2.4,7.2,9.7,10.9,16.3,8.3c6.6-2.6,10-10.6,7.6-17.8
	C1600.1,1985.1,1592.8,1981.4,1586.2,1984z"/>
<path class="st13" d="M1709.6,2484c-6.6,2.6-10,10.6-7.6,17.8c2.4,7.2,9.7,10.9,16.3,8.3c6.6-2.6,10-10.6,7.6-17.8
	C1723.5,2485.1,1716.2,2481.4,1709.6,2484z"/>
<path class="st13" d="M1645.1,2010c-6.6,2.6-10,10.6-7.6,17.8c2.4,7.2,9.7,10.9,16.3,8.3c6.6-2.6,10-10.6,7.6-17.8
	C1659,2011.1,1651.7,2007.4,1645.1,2010z"/>
<polygon class="st14" points="571.8,3045.6 882.3,3304.1 698.6,3567.8 388.1,3309.3 "/>
<polygon class="st8" points="575.3,3069.3 717.9,3188 552.5,3425.4 409.9,3306.7 "/>
<polygon class="st8" points="860.5,3306.7 717.9,3188 552.5,3425.4 695.1,3544.1 "/>
<polygon class="st4" points="849.5,3286.2 717.9,3188 552.5,3425.4 674.1,3538 "/>
<polygon class="st4" points="596.3,3075.4 717.9,3188 552.5,3425.4 420.9,3327.2 "/>
<polygon class="st8" points="828.7,3291.7 724.7,3214.1 577.7,3425.2 673.7,3514.1 "/>
<line class="st15" x1="710.6" y1="3234.5" x2="813.3" y2="3313.8"/>
<line class="st15" x1="678" y1="3281.3" x2="779.1" y2="3362.9"/>
<line class="st15" x1="647.6" y1="3324.8" x2="747.2" y2="3408.7"/>
<line class="st15" x1="618" y1="3367.4" x2="716.1" y2="3453.4"/>
<polygon class="st8" points="596.5,3098.7 693.2,3186.8 547.7,3399.1 444.7,3319.7 "/>
<line class="st15" x1="679.2" y1="3207.2" x2="581.3" y2="3120.9"/>
<line class="st15" x1="632.8" y1="3275" x2="533.3" y2="3191"/>
<line class="st15" x1="604.8" y1="3316.4" x2="503.7" y2="3234.7"/>
<line class="st15" x1="572.8" y1="3362.9" x2="470.3" y2="3283.3"/>
<path class="st16" d="M-29.5,2884c-9.2,1.7-19.5,4.3-27.3,7c6.6,1.1,16.2,2,29.5,2.5l-0.5,15c-24.1-1.1-37.5-3.3-43.6-6
	c-6.8-3.1-8.9-7.6-7.2-13.2c1-3.5,4.1-6.4,8.4-8.8c8.4-4.5,24.8-8.8,38.4-11.4L-29.5,2884z"/>
<path class="st17" d="M-3.6,3113.1l-31.3-243.4l302-46.4c84.6-13,170.7-27.1,184.7,81.1c14,108.2-148.6,120.1-183.5,124.1
	c25.7,20,87,48.1,64.3,98.6c-27.8,61.6-132.5-45.2-223.4-31.3L-3.6,3113.1z"/>
<path class="st18" d="M360.4,2814.8l0.5,0.4l0.2-0.3c2.7,0.2,5.3,0.4,8,0.7l-2.8,4.1l31.3,25.8l12.1-17.5c2,1.2,3.9,2.4,5.8,3.8
	l-12.5,18.2l31.3,25.8l7.3-10.6c1.1,2.5,2.1,5.1,3.1,7.8l-5,7.3l9.3,7.6c0.8,3.5,1.5,7.1,2.1,10.9l-15.4-12.7l-23.6,34.2l31.3,25.8
	l7.5-10.9c-4.6,21.5-17.6,37.9-34.8,50.5l23.2-33.7l-31.3-25.8l-23.6,34.2l31.1,25.6c-2,1.4-4,2.8-6.1,4.2l-29.1-24l-23.6,34.2
	l11.1,9.1c-2.7,0.9-5.3,1.8-8,2.6l-7.1-5.9l-6.7,9.8c-3.4,0.9-6.8,1.7-10.1,2.4l11.4-16.6l-31.3-25.8l-23.6,34.2l16.2,13.3
	c-3.3,0.5-6.4,1-9.5,1.4l-10.8-8.9l-7.7,11.2c-3.4,0.4-6.5,0.7-9.1,1l11.4-16.6l-31.3-25.8l-23.6,34.2l31.3,25.8l10.9-15.8
	c1.8,1.3,3.6,2.7,5.6,4l-11.1,16.2l31.3,25.8l12.8-18.5c1.8,1.5,3.6,3,5.3,4.5l-12.7,18.4l31.3,25.8l4.4-6.4
	c0.8,5.7,0.4,11.8-1.3,18.2l-1.8-1.5l-19.4,28.1c-6.2,2.1-13.5,2.2-21.5,1l-23.3-19.2l-7.1,10.3c-2.2-0.8-4.4-1.7-6.6-2.6l8.4-12.1
	l-31.3-25.8l-15.1,21.9c-2.2-0.9-4.4-1.8-6.6-2.7l16.3-23.7l-31.3-25.8l-23.6,34.2l3.1,2.6c-5.4-1.6-10.9-3-16.3-4.2l-27.5-22.7
	l-13.1,19c-3,0.2-6,0.5-9,0.9l16.8-24.3l-31.3-25.8l-23.6,34.2l22.2,18.3l-9.4,1.4l-16.9-13.9l-12.7,18.4l-9.4,1.4l16.7-24.3
	l-31.3-25.8l-23.6,34.2l22.2,18.3l-9.4,1.4l-16.9-13.9l-7.9,11.5l-1.3-10.3l3.9-5.6l-5.2-4.2l-1.3-10.3l10.5,8.7l23.6-34.2
	l-31.3-25.8l-7.9,11.5l-1.3-10.3l3.9-5.6l-5.2-4.2l-1.3-10.3l10.5,8.7l23.6-34.2l-31.3-25.8l-7.9,11.5l-1.3-10.3l3.9-5.6l-5.1-4.2
	l-1.3-10.3l10.5,8.7l23.6-34.2l-31.3-25.8l-7.9,11.5l-1.3-10.3l3.9-5.6l-5.2-4.2l-0.8-6.4l3.6-0.6l6.4,5.3l4.8-7l9.4-1.4l-8.9,12.9
	l31.3,25.8l23.6-34.2l-11.8-9.7l9.4-1.4l6.4,5.3l4.8-7l9.4-1.4l-8.9,12.9l31.3,25.8l23.6-34.2l-11.8-9.7l9.4-1.4l6.4,5.3l4.8-7
	l9.4-1.4l-8.9,12.9l31.3,25.8l23.6-34.2l-11.8-9.7l9.4-1.4l6.4,5.3l4.8-7l9.4-1.4l-8.9,12.9l31.3,25.8l23.6-34.2l-11.8-9.7l9.4-1.4
	l6.4,5.3l4.8-7l9.4-1.4l-8.9,12.9l31.3,25.8l23.6-34.2l-11.8-9.7c3.2-0.5,6.3-0.9,9.5-1.4l6.4,5.2l4.7-6.8c3.1-0.4,6.1-0.8,9.2-1.2
	l-8.5,12.3l31.3,25.8l23.6-34.2l-7.9-6.5C352.8,2814.5,356.6,2814.6,360.4,2814.8L360.4,2814.8z M-1.4,3019.4l31.3,25.8l23.6-34.2
	l-31.3-25.8L-1.4,3019.4L-1.4,3019.4z M35.2,3049.6l31.3,25.8l23.6-34.2l-31.3-25.8L35.2,3049.6L35.2,3049.6z M-10.5,2949.1
	l31.3,25.8l23.6-34.2l-31.3-25.8L-10.5,2949.1L-10.5,2949.1z M26.2,2979.3l31.3,25.8l23.6-34.2l-31.3-25.8L26.2,2979.3L26.2,2979.3z
	 M62.8,3009.5l31.3,25.8l23.6-34.2l-31.3-25.8L62.8,3009.5L62.8,3009.5z M99.5,3039.7l31.3,25.8l23.6-34.2l-31.3-25.8L99.5,3039.7
	L99.5,3039.7z M136.2,3069.9l31.3,25.8l23.6-34.2l-31.3-25.8L136.2,3069.9L136.2,3069.9z M17.1,2909l31.3,25.8l23.6-34.2l-31.3-25.8
	L17.1,2909L17.1,2909z M53.8,2939.2l31.3,25.8l23.6-34.2L77.4,2905L53.8,2939.2L53.8,2939.2z M90.5,2969.4l31.3,25.8l23.6-34.2
	l-31.3-25.8L90.5,2969.4L90.5,2969.4z M127.1,2999.6l31.3,25.8l23.6-34.2l-31.3-25.8L127.1,2999.6L127.1,2999.6z M163.8,3029.8
	l31.3,25.8l23.6-34.2l-31.3-25.8L163.8,3029.8L163.8,3029.8z M200.5,3060l31.3,25.8l23.6-34.2l-31.3-25.8L200.5,3060L200.5,3060z
	 M237.1,3090.2l31.3,25.8l23.6-34.2l-31.3-25.8L237.1,3090.2L237.1,3090.2z M273.8,3120.4l31.3,25.8l23.6-34.2l-31.3-25.8
	L273.8,3120.4L273.8,3120.4z M81.4,2899.1l31.3,25.8l23.6-34.2l-31.3-25.8L81.4,2899.1L81.4,2899.1z M118.1,2929.3l31.3,25.8
	l23.6-34.2l-31.3-25.8L118.1,2929.3L118.1,2929.3z M154.8,2959.5l31.3,25.8l23.6-34.2l-31.3-25.8L154.8,2959.5L154.8,2959.5z
	 M191.4,2989.7l31.3,25.8l23.6-34.2l-31.3-25.8L191.4,2989.7L191.4,2989.7z M145.7,2889.3L177,2915l23.6-34.2l-31.3-25.8
	L145.7,2889.3L145.7,2889.3z M182.4,2919.5l31.3,25.8l23.6-34.2l-31.3-25.8L182.4,2919.5L182.4,2919.5z M219,2949.7l31.3,25.8
	l23.6-34.2l-31.3-25.8L219,2949.7L219,2949.7z M255.7,2979.9l31.3,25.8l23.6-34.2l-31.3-25.8L255.7,2979.9L255.7,2979.9z
	 M210,2879.4l31.3,25.8l23.6-34.2l-31.3-25.8L210,2879.4L210,2879.4z M246.7,2909.6l31.3,25.8l23.6-34.2l-31.3-25.8L246.7,2909.6
	L246.7,2909.6z M283.3,2939.8l31.3,25.8l23.6-34.2l-31.3-25.8L283.3,2939.8L283.3,2939.8z M320,2970l31.3,25.8l23.6-34.2l-31.3-25.8
	L320,2970L320,2970z M274.3,2869.5l31.3,25.8l23.6-34.2l-31.3-25.8L274.3,2869.5L274.3,2869.5z M311,2899.7l31.3,25.8l23.6-34.2
	l-31.3-25.8L311,2899.7L311,2899.7z M347.6,2929.9l31.3,25.8l23.6-34.2l-31.3-25.8L347.6,2929.9L347.6,2929.9z M338.6,2859.6
	l31.3,25.8l23.6-34.2l-31.3-25.8L338.6,2859.6L338.6,2859.6z M375.2,2889.8l31.3,25.8l23.6-34.2l-31.3-25.8L375.2,2889.8z"/>
<path class="st4" d="M1785.5,5657.3c55.7-1.2,86.7-155.7-2.8-153.7C1696,5505.5,1729.8,5658.5,1785.5,5657.3z"/>
<path class="st8" d="M1807.1,5647.7c40-33.2,51.7-146.3-24.9-144.6c-18.3,0.4-31.2,7.5-39.7,18.5c5.9-2.2,12.6-3.4,20.1-3.6
	C1830.4,5516.5,1832.8,5599.8,1807.1,5647.7z"/>
<path class="st19" d="M1617.3,2911.3l458.6,308.7c45,30.3,57.1,92,26.8,137l-159.2,236.5c-30.3,45-92,57.1-137,26.8l-458.6-308.7
	c-45-30.3-57.1-92-26.8-137l159.2-236.5C1510.6,2893,1572.3,2880.9,1617.3,2911.3z"/>
<path class="st20" d="M1732.5,3246.5c46.3,6.5,78.7,49.3,72.2,95.6c-6.5,46.3-49.3,78.7-95.6,72.2c-46.3-6.5-78.7-49.3-72.2-95.6
	C1643.4,3272.3,1686.2,3240,1732.5,3246.5L1732.5,3246.5z M1729.6,3267c-35-4.9-67.3,19.5-72.2,54.5c-4.9,35,19.5,67.3,54.5,72.2
	c35,4.9,67.3-19.5,72.2-54.5C1789,3304.2,1764.6,3271.9,1729.6,3267z"/>
<path class="st21" d="M1731.6,3252.6c42.9,6,72.9,45.7,66.9,88.6c-6,42.9-45.7,72.9-88.6,66.9c-42.9-6-72.9-45.7-66.9-88.6
	C1649.1,3276.6,1688.7,3246.6,1731.6,3252.6L1731.6,3252.6z M1730.1,3263.4c-37-5.2-71.1,20.6-76.3,57.6
	c-5.2,37,20.6,71.1,57.6,76.3c37,5.2,71.1-20.6,76.3-57.6C1792.9,3302.7,1767.1,3268.6,1730.1,3263.4z"/>
<path class="st22" d="M1683.4,3185.4c-47.2-6.6-90.7,26.3-97.3,73.5c-6.6,47.2,26.3,90.7,73.5,97.3c47.2,6.6,90.7-26.3,97.3-73.5
	C1763.5,3235.5,1730.6,3191.9,1683.4,3185.4L1683.4,3185.4z M1680.5,3206.3c35.6,5,60.5,37.9,55.5,73.5c-5,35.6-37.9,60.5-73.5,55.5
	c-35.6-5-60.5-37.9-55.5-73.5C1612,3226.1,1644.9,3201.3,1680.5,3206.3z"/>
<path class="st23" d="M1682.5,3191.6c-43.7-6.1-84.1,24.4-90.2,68.1c-6.1,43.7,24.4,84.1,68.1,90.2c43.7,6.1,84.1-24.4,90.2-68.1
	C1756.7,3238.1,1726.2,3197.7,1682.5,3191.6L1682.5,3191.6z M1681,3202.6c37.6,5.3,63.9,40,58.6,77.6c-5.3,37.6-40,63.9-77.6,58.6
	c-37.6-5.3-63.9-40-58.6-77.6C1608.6,3223.6,1643.4,3197.4,1681,3202.6z"/>
<path class="st20" d="M1564.3,3221.1c44.8-13.6,92.1,11.6,105.7,56.3c13.6,44.8-11.6,92.1-56.3,105.7
	c-44.7,13.6-92.1-11.6-105.7-56.3C1494.3,3282,1519.5,3234.7,1564.3,3221.1L1564.3,3221.1z M1570.3,3240.9
	c-33.8,10.3-52.8,46-42.5,79.8c10.3,33.8,46,52.8,79.8,42.5c33.8-10.3,52.8-46,42.5-79.8C1639.9,3249.7,1604.1,3230.6,1570.3,3240.9
	z"/>
<path class="st21" d="M1599.9,3223.4c42.9,6,72.9,45.7,66.9,88.6c-6,42.9-45.7,72.9-88.6,66.9c-42.9-6-72.9-45.7-66.9-88.6
	C1517.4,3247.4,1557,3217.4,1599.9,3223.4L1599.9,3223.4z M1598.4,3234.2c-37-5.2-71.1,20.6-76.3,57.6c-5.2,37,20.6,71.1,57.6,76.3
	c37,5.2,71.1-20.6,76.3-57.6C1661.2,3273.5,1635.4,3239.4,1598.4,3234.2z"/>
<path class="st22" d="M1705.8,3090.8c-45.6,13.9-71.2,62.1-57.3,107.6c13.9,45.6,62.1,71.2,107.6,57.3
	c45.6-13.9,71.2-62.1,57.3-107.6C1799.6,3102.6,1751.4,3076.9,1705.8,3090.8L1705.8,3090.8z M1712,3111
	c34.4-10.5,70.8,8.9,81.3,43.3c10.5,34.4-8.9,70.8-43.3,81.3c-34.4,10.5-70.8-8.9-81.3-43.3C1658.2,3157.8,1677.6,3121.5,1712,3111z
	"/>
<path class="st23" d="M1741.6,3095.9c-43.7-6.1-84.1,24.4-90.2,68.1c-6.1,43.7,24.4,84.1,68.1,90.2c43.7,6.1,84.1-24.4,90.2-68.1
	C1815.8,3142.3,1785.3,3102,1741.6,3095.9L1741.6,3095.9z M1740.1,3106.9c37.6,5.3,63.9,40,58.6,77.6c-5.3,37.6-40,63.9-77.6,58.6
	c-37.6-5.3-63.9-40-58.6-77.6C1667.7,3127.8,1702.4,3101.6,1740.1,3106.9z"/>
<path class="st24" d="M1647.4,3237.9c-45.6,13.9-71.2,62.1-57.3,107.6c13.9,45.6,62.1,71.2,107.6,57.3
	c45.6-13.9,71.2-62.1,57.4-107.6C1741.1,3249.7,1692.9,3224,1647.4,3237.9L1647.4,3237.9z M1653.5,3258.1
	c34.4-10.5,70.8,8.9,81.3,43.3c10.5,34.4-8.9,70.8-43.3,81.3c-34.4,10.5-70.8-8.9-81.3-43.3
	C1599.7,3304.9,1619.1,3268.6,1653.5,3258.1z"/>
<path class="st25" d="M1681.5,3241.2c-43.7-6.1-84.1,24.4-90.2,68.1c-6.1,43.7,24.4,84.1,68.1,90.2c43.7,6.1,84.1-24.4,90.2-68.1
	C1755.7,3287.7,1725.2,3247.3,1681.5,3241.2L1681.5,3241.2z M1680,3252.2c37.6,5.3,63.9,40,58.6,77.6c-5.3,37.6-40,63.9-77.6,58.6
	c-37.6-5.3-63.9-40-58.6-77.6C1607.6,3273.2,1642.4,3247,1680,3252.2z"/>
<path class="st20" d="M1410.5,3026.3c-8.4,19.3-17,79.5-19.8,110.8c-2.7,31.3,3.5,74.6,4.9,105c1.4,30.3,4.5,52,8.2,63.3
	c3.7,11.3,9.6-40.1,11.3-61.4c1.6-21.3-2.4-72.9,2.7-100.7c5-27.8,15.4-89.2,21.3-109.6C1445,3013.1,1415.1,3009.7,1410.5,3026.3z"
	/>
<path class="st26" d="M1411.2,3024.9c0,0-2.6-4.3,3.5-9.6c6.1-5.3,10.9-9.2,10.8-13.1c-0.1-4-3.6-12.3,1.3-13.1
	c4.9-0.8,6.8,12.3,8.3,17.6c1.5,5.3,9,18.3,4.7,23.6c-0.5-2.4-1.3-5.7-4.8-4.4c-3.5,1.3-4.1,1.7-7.8-2
	C1423.6,3020.1,1417.9,3017.6,1411.2,3024.9z"/>
<path class="st22" d="M1414.3,3019.6c2.2-1.4,7.7-1.9,10.4-0.1c2.7,1.8,4.1,3.3,5.1,2.5c1-0.9,0.8-3.8-5-5.9
	C1418.9,3014,1411.4,3018.9,1414.3,3019.6z"/>
<path class="st22" d="M1493.6,3063.5c-11.6,17.6-30.5,75.4-38.6,105.7c-8.1,30.4-9.4,74.1-13.3,104.2c-3.9,30.1-4.6,52-2.8,63.7
	c1.7,11.7,16.4-37.9,21.7-58.6c5.3-20.7,10.3-72.2,20.1-98.8s30.5-85.2,39.9-104.3C1529.9,3056.5,1500.9,3048,1493.6,3063.5z"/>
<path class="st23" d="M1454.3,3192c4.7-0.4,5,3.9,0.8,4.4C1450.9,3197,1450.5,3192.3,1454.3,3192z"/>
<path class="st26" d="M1494.5,3062.3c0,0-1.8-4.7,5.1-8.9c6.9-4.2,12.3-7.1,12.9-11c0.6-3.9-1.4-12.8,3.5-12.7
	c4.9,0.1,4.5,13.3,5.1,18.8c0.6,5.4,5.7,19.6,0.6,24.1c0-2.4-0.3-5.8-3.9-5.1c-3.7,0.7-4.4,0.9-7.3-3.4
	C1507.5,3059.7,1502.4,3056.3,1494.5,3062.3z"/>
<path class="st22" d="M1564.1,3040.7c4.8-12.7,28.1-55.5,38-59c9.8-3.5,21.5-5.4,27.4-4.2c5.8,1.2,12.6-3.7,5.9-4.4
	c-6.7-0.8,19.9-21.3,9.4-14.1c-10.5,7.2-2.2-0.5-11.2-1.1c-9.1-0.6,12-16.2,4.9-15.7c-7.2,0.5,11.1-24.2,0.8-18.6
	c-10.3,5.6,5.1-19-2.9-8.3c-8,10.7-8.9-0.4-13.3,3.9c-4.4,4.2-0.2-20.6-6-14.6c-5.7,5.9-3.3-18-8.6-13.4c-5.3,4.7-5-22.4-7.5-13.1
	c-2.6,9.3-4.4,13.6-7.8,10c-3.4-3.5-11.4-3.9-4.8,4.2c6.6,8.1-10.9,2-3.2,11.2c7.6,9.2-14.3-0.3-6.9,9.2c7.4,9.5-8.7,3.7-2.2,15.3
	c6.5,11.6-26-22.6-19.3-9s-6.9,9.2,0.7,18c7.6,8.8-18.6-1.7-6,7.9c12.6,9.6-11.5,11,1.4,15.6c12.9,4.6-13.8,10.8,5.4,11.4
	c19.3,0.6,32.7,0.4,32.3,8.4C1590,2988.2,1568.2,3005.3,1564.1,3040.7z"/>
<path class="st23" d="M1598.3,2973.8c5.6-10.5,14.2-29.4,7-60.3C1622.3,2947.6,1609.2,2965,1598.3,2973.8z"/>
<path class="st22" d="M1568.4,3044.3c7.7-4.6,32.8-24.9,33.9-31.7c1.1-6.8,1-14.7-0.5-18.3c-1.5-3.6,0.9-8.7,2.2-4.4
	c1.3,4.3,11.5-15.5,8.1-7.8c-3.4,7.7,0.6,1.4,2,7.2c1.5,5.8,9.1-9.8,9.7-5c0.5,4.7,14.5-10.1,12-2.7c-2.5,7.4,11.7-5.6,5.7,0.9
	c-6,6.5,1.3,5.7-0.9,9.1c-2.2,3.4,13.4-2.3,10.2,2.2c-3.2,4.5,12.1,0,9.7,4c-2.4,4,15.2,0.6,9.5,3.3c-5.7,2.8-8.3,4.5-5.6,6.3
	c2.7,1.8,3.9,7-2.2,3.7c-6.1-3.3,0,7.3-6.9,3.5c-6.9-3.9,1.9,9.3-5.2,5.6c-7-3.7-1.4,6.1-9.7,3.3c-8.3-2.8,17.8,14.2,8.2,11.5
	c-9.6-2.7-5.2,5.6-11.8,1.7c-6.6-3.9,3.3,11.9-4.4,4.8c-7.7-7.1-5.8,8.8-10.3,0.9c-4.5-7.9-5.4,10.3-8-2.2
	c-2.7-12.5-4.2-21.2-9.3-20C1599.5,3021.1,1591,3037.4,1568.4,3044.3z"/>
<path class="st23" d="M1607.9,3014c6.2-4.9,17.5-12.8,38.4-11.7C1622.1,2995.3,1612.3,3005.9,1607.9,3014z"/>
<path class="st22" d="M1563.3,3042.2c-2.9-6.7-10.1-32-7.6-37.1c2.5-5,6.2-10.2,8.9-11.9c2.7-1.7,3.5-6.2,0.6-3.9
	c-2.9,2.2-0.4-15.7-1.7-9c-1.4,6.7-1,0.6-4.7,3.8c-3.7,3.2-1.5-10.8-4.1-7.9c-2.6,2.9-4.9-13.5-6.7-7.5c-1.8,6.1-5.2-9.2-4.2-2.1
	c0.9,7.1-3.6,3.2-3.7,6.5c-0.1,3.3-7.9-7.8-7.8-3.4c0,4.5-8.1-5.7-8.4-1.9c-0.3,3.8-10.4-6.7-7.9-2.2c2.5,4.5,3.4,6.9,0.8,6.8
	c-2.6-0.1-5.9,2.8-0.3,3.5c5.6,0.7-3.4,4.8,3,5.5c6.4,0.7-5.6,5.3,0.8,6.1c6.4,0.9-2,4.7,4.9,6.8c6.9,2-18.5,1.1-10.8,3.8
	c7.7,2.7,0.8,6.1,7.1,6.7c6.3,0.5-7.8,6.4,0.7,5.3c8.5-1.1-0.3,8.6,6.4,5.5c6.7-3.1-1.3,9.4,6.4,2.3c7.6-7,12.7-12.2,15.6-8.9
	C1553.4,3012.2,1551.5,3027,1563.3,3042.2z"/>
<path class="st23" d="M1551.2,3003.5c-1.8-6.2-5.6-16.7-20-25.9C1550.6,2984.4,1552.1,2996,1551.2,3003.5z"/>
<path class="st27" d="M1307.9,3600.6c-43,16.3-87.5-25.7-109.5-115.8c-21.9-90.1-50.7-175.4-25.3-182.8
	c25.4-7.5,47.6,80.7,73.1,117.3C1271.7,3455.8,1364.3,3576.6,1307.9,3600.6z"/>
<path class="st28" d="M1297.2,3589.7c-10.9,5.3-15.8,3.1-12.2,20.3c3.5,17.2-2.4,61.1,3.7,38.3c6.1-22.7,7.8-13.8,13.6-2.2
	c5.8,11.6,25.6,30.4,13.4,6.4c-12.2-24,35.8,10.4,14.2-12.7c-21.6-23,25.5,16.5,13.9-0.1c-11.6-16.6,22.8,2.1,5-13
	c-17.8-15.1-25.9-17.9-29.9-28.5C1314.8,3587.5,1307.2,3582.2,1297.2,3589.7z"/>
<path class="st29" d="M1246.4,3563.4c8.9-27.5,41.7-29.5,60.2-26.2C1287,3527.6,1254,3528.2,1246.4,3563.4z"/>
<path class="st29" d="M1234.5,3530c7.5-23.1,35-24.8,50.6-22C1268.6,3500,1240.9,3500.5,1234.5,3530z"/>
<path class="st29" d="M1234,3554.1c10.3-31.8,48.2-34.2,69.7-30.3C1281,3512.7,1242.8,3513.5,1234,3554.1z"/>
<path class="st29" d="M1208.3,3479c7.7-23.8,36.1-25.6,52.2-22.7C1243.5,3448,1214.9,3448.6,1208.3,3479z"/>
<path class="st29" d="M1205,3462.8c6.8-21.1,31.9-22.6,46.2-20.1C1236.2,3435.4,1210.9,3435.8,1205,3462.8z"/>
<path class="st29" d="M1177.4,3374.3c5.2-16,24.2-17.2,35-15.2C1201,3353.5,1181.8,3353.8,1177.4,3374.3z"/>
<path class="st29" d="M1173.8,3364.3c5.2-16,24.2-17.2,35-15.3C1197.4,3343.5,1178.2,3343.8,1173.8,3364.3z"/>
<path class="st27" d="M1036.6,3614c-26.3-12.6-26.5-51.5,5.4-101c31.9-49.5,58.5-100,73.1-91.6c14.5,8.4-16.3,57.2-22,85
	C1087.4,3534,1072.3,3629.4,1036.6,3614z"/>
<path class="st28" d="M1036.9,3604.3c-7.2-2.7-8.3-5.9-14.7,3.2c-6.4,9.1-29.1,25.6-16,18.5c13.1-7.1,9.8-2.5,7,5.3
	c-2.8,7.8-2.8,25.1,2.9,9c5.7-16.1,10.9,21,12,1c1.1-20,3.6,18.9,6.2,6.3c2.6-12.6,9,11.4,8.2-3.4c-0.8-14.8-3.1-19.7,0-26.2
	C1045.6,3611.4,1044.7,3605.6,1036.9,3604.3z"/>
<path class="st29" d="M1026.8,3569.4c16.5-7.9,31.8,6.2,38.4,16.3C1061,3572.4,1046.3,3557.5,1026.8,3569.4z"/>
<path class="st29" d="M1036.9,3549.3c13.9-6.7,26.7,5.3,32.3,13.7C1065.7,3551.9,1053.3,3539.3,1036.9,3549.3z"/>
<path class="st29" d="M1025.6,3559.6c19.1-9.2,36.8,7.2,44.4,18.8C1065.2,3563.2,1048.2,3545.9,1025.6,3559.6z"/>
<path class="st29" d="M1049,3515c14.3-6.9,27.6,5.4,33.3,14.1C1078.6,3517.6,1065.9,3504.7,1049,3515z"/>
<path class="st29" d="M1055,3506.3c12.7-6.1,24.4,4.8,29.4,12.5C1081.2,3508.7,1069.9,3497.2,1055,3506.3z"/>
<path class="st29" d="M1083.7,3454.9c9.6-4.6,18.5,3.6,22.3,9.5C1103.6,3456.7,1095,3448,1083.7,3454.9z"/>
<path class="st29" d="M1086.7,3448.9c9.6-4.6,18.5,3.6,22.3,9.5C1106.6,3450.6,1098,3442,1086.7,3448.9z"/>
<path class="st30" d="M1287.1,2512c0.8-3.3-0.9-6.5-1.8-4.2c-0.8,2.4-3.2-1.1-3.6,1.7c-0.4,2.7-4.7,0.2-4.2,2.3
	c0.6,2.1-4.5-0.2-3.4,1.5c1.1,1.6-5.3-0.5-2.7,1.2c2.6,1.7,4.6,6.5,8.8,7.7C1284.4,2523.4,1285.3,2519.4,1287.1,2512z"/>
<path class="st31" d="M1277.9,2524.4c6-12.6,27.9-9.7,28.8-3c35.3,12.2,12.8,42,2.6,47.1c-5.9,2.9-5.1,8.2-3,14.9
	c2.1,6.7,2.3,10.6-0.7,11.5c-3,0.9-4.9,0.6-6.8-7.6c-1.9-8.2-2.7-14.5-8.2-14.3c-5.5,0.2-36.9-5.9-30.9-27.1
	C1255.6,2537.2,1263.6,2520.4,1277.9,2524.4z"/>
<path class="st32" d="M1307.6,2524.1c3.3,2.8,11.2,20.5-3.1,38.6C1315.2,2544.2,1308.7,2526.7,1307.6,2524.1z"/>
<path class="st32" d="M1277.9,2525.1c-2.5,3.6-5.7,22.7,12.7,36.6C1275.5,2546.5,1277.4,2527.9,1277.9,2525.1z"/>
<path class="st32" d="M1260.8,2546.5c-0.2,4.3,7,21.5,28,21.9C1269.7,2565,1261.8,2549,1260.8,2546.5z"/>
<path class="st30" d="M1394.4,2433.4c2.5-2.2,2.9-5.9,0.9-4.5c-2,1.5-2.1-2.7-3.9-0.7c-1.9,2-4-2.5-4.8-0.5
	c-0.7,2.1-3.7-2.7-3.7-0.7c0,2-4.1-3.4-2.9-0.5c1.2,2.9,0.2,7.9,3,11.3C1385.8,2441.3,1388.8,2438.5,1394.4,2433.4z"/>
<path class="st31" d="M1379.9,2438.5c12-7.1,28.6,7.6,25.6,13.7c22.3,29.9-13,42-24.3,40.4c-6.5-0.9-8.8,3.9-10.8,10.6
	c-2,6.7-4,10-7,9.1c-3-0.9-4.4-2.3-1.3-10.1c3.1-7.8,5.9-13.5,1.3-16.4c-4.6-2.9-27.2-25.6-10.4-39.8
	C1354.2,2436.6,1370.3,2427.1,1379.9,2438.5z"/>
<path class="st32" d="M1404.6,2454.9c1.2,4.2-2.3,23.3-24.3,30.2C1399.6,2475.9,1404.1,2457.7,1404.6,2454.9z"/>
<path class="st32" d="M1379.4,2439.1c-4.1,1.5-17.4,15.6-10,37.4C1365.5,2455.5,1377.5,2441.1,1379.4,2439.1z"/>
<path class="st32" d="M1353.3,2447.2c-2.6,3.5-6.3,21.7,10.9,33.9C1350.3,2467.5,1352.8,2449.8,1353.3,2447.2z"/>
<path class="st30" d="M1243.8,2429.1c-1.8-2.8-5.4-3.8-4.3-1.6c1.2,2.2-3,1.6-1.2,3.8c1.7,2.2-3.1,3.6-1.2,4.6
	c1.9,1-3.2,3.2-1.3,3.5c1.9,0.3-4,3.5-1,2.8c3-0.8,7.9,1,11.6-1.2C1250.3,2438.8,1248,2435.4,1243.8,2429.1z"/>
<path class="st31" d="M1246.6,2444.2c-5.2-13,11.9-27.1,17.5-23.1c33-17.5,39.5,19.3,36.2,30.3c-1.9,6.3,2.5,9.3,8.8,12.3
	s9.3,5.5,7.9,8.3c-1.3,2.8-2.9,4-10.2-0.2c-7.3-4.2-12.5-7.9-16-3.8c-3.6,4.1-29.5,23-40.9,4.1
	C1240.8,2469.3,1233.9,2452,1246.6,2444.2z"/>
<path class="st32" d="M1266.7,2422.3c4.3-0.5,22.6,5.8,26.1,28.6C1286.6,2430.5,1269.3,2423.2,1266.7,2422.3z"/>
<path class="st32" d="M1247.1,2444.8c0.9,4.3,12.7,19.6,35.5,15.6C1261.2,2461.1,1248.8,2447,1247.1,2444.8z"/>
<path class="st32" d="M1251.1,2471.8c3.1,3.1,20.5,9.6,35.2-5.6C1270.8,2478,1253.7,2472.7,1251.1,2471.8z"/>
<g>
	<defs>
		<rect id="SVGID_1_" x="1411.5" y="1888" width="555.7" height="951.1"/>
	</defs>
	<clipPath id="SVGID_2_">
		<use xlink:href="#SVGID_1_"  style="overflow:visible;"/>
	</clipPath>
	<path class="st33" d="M1656.8,2153.4c-103.4,112.9-77.6,301,64.6,363.7c116.4,50.2,258.6-18.8,278-137.9
		c19.4-125.4-103.4-232-226.3-194.4c-45.3,12.5-77.6,43.9-103.4,81.5c-45.3,75.2-19.4,163,45.3,213.2
		c51.7,37.6,116.4,31.3,174.5,6.3c58.2-31.4,90.5-94.1,77.6-163c-19.4-87.8-122.8-131.7-206.9-81.5c-64.6,43.9-64.6,144.2,6.5,181.8
		c32.3,12.5,71.1,6.3,103.4-12.5c25.9-18.8,32.3-50.2,32.3-81.5c19.4,87.8-77.6,125.4-148.7,100.3c25.9,12.5,58.2,12.5,90.5,12.5
		c-64.6,12.5-129.3-12.5-142.2-81.5c-19.4-87.8,58.2-156.8,135.8-156.8c45.3,0,84,18.8,109.9,50.2c51.7,69,45.3,169.3-25.9,225.7
		c-97,81.5-245.7,37.6-297.4-69c-58.2-125.4,19.4-275.9,155.2-313.5c134.7-31.1,282.2,48.9,303.4,178.9c-1.6-5.3-7-10.6-12.5-15.8
		c12.9,31.4,12.9,56.4,19.4,87.8c-19.4-56.4-45.3-125.4-109.9-150.5c25.9,56.4,51.7,112.9,38.8,181.8
		c-25.9,131.7-174.5,200.7-297.4,150.5c-97-43.9-148.7-144.2-135.8-244.5c12.9-94.1,77.6-169.3,168.1-200.7
		c-122.8,37.6-200.4,175.6-168.1,301c-32.3-119.1,25.9-250.8,148.7-307.2c155.1-62.7,349.1,18.8,407.3,175.6
		c-19.4-56.4-58.2-100.3-103.4-137.9c-129.3-100.3-316.8-81.5-420.2,50.2c-84,112.9-64.6,257.1,45.3,344.9
		c84,62.7,187.5,62.7,278,25.1c-84,75.2-213.3,62.7-303.8-6.3c-122.8-94.1-135.8-263.4-51.7-376.2c0,0,0,2.8-0.2,4.3
		c2-2.6,9.1-11.9,18.7-24c7.4-17.9,33.2-30.5,39.7-49.3c-109.9,37.6-174.5,156.8-168.1,263.4c19.4,206.9,265.1,351.1,465.5,269.6
		c77.6-31.4,135.8-94.1,168.1-169.3c38.8-106.6,6.5-225.7-77.6-307.3C1928.3,2053,1753.7,2053,1656.8,2153.4z"/>
</g>
<polygon class="st34" points="984.5,4550 -690.8,3877.6 262.3,1948.7 1937.6,2621 "/>
</svg>
